<svg xmlns="http://www.w3.org/2000/svg" version="1.1" xml:space="preserve" style="fill-rule:nonzero;clip-rule:evenodd;stroke-linecap:round;stroke-linejoin:round;" viewBox="0 0 1080 1600">
<defs>
<filter x="117.5" height="845" color-interpolation-filters="sRGB" y="0" id="D8E3EAAD-1217-4778-89FB-05DAF0E79DF3" width="845" filterUnits="userSpaceOnUse">
<feDropShadow dy="10" dx="-3.6732e-05" width="845" height="845" flood-color="#000000" stdDeviation="3"/>
</filter>
<linearGradient gradientUnits="userSpaceOnUse" x2="145.696" y2="0" id="LinearGradient" x1="145.696" y1="280.8" gradientTransform="matrix(0.712251 0 0 0.712251 415 103.62)">
<stop stop-opacity="0" offset="0" stop-color="#000000"/>
<stop stop-color="#000000" offset="1"/>
</linearGradient>
</defs>
<g>
<path d="M135.677+50L944.323+50C980.596+50+1010+79.0324+1010+114.846L1010+1485.15C1010+1520.97+980.596+1550+944.323+1550L135.677+1550C99.4045+1550+70+1520.97+70+1485.15L70+114.846C70+79.0324+99.4045+50+135.677+50Z" opacity="1" fill="#065fc5"/>
<path fill="#ffffff" d="M174.723+396.134L182.193+396.134L182.193+432.121L174.723+432.121L174.723+396.134Z" opacity="1"/>
<path fill="#ffffff" d="M203.58+412.834C202.994+411.548+201.847+410.905+200.138+410.905C198.152+410.905+196.817+411.548+196.134+412.834C195.759+413.566+195.572+414.657+195.572+416.105L195.572+432.121L188.517+432.121L188.517+405.558L195.279+405.558L195.279+409.44C196.142+408.057+196.956+407.072+197.721+406.486C199.072+405.444+200.821+404.924+202.97+404.924C205.004+404.924+206.648+405.371+207.901+406.266C208.91+407.096+209.675+408.162+210.196+409.465C211.108+407.902+212.239+406.755+213.59+406.022C215.022+405.29+216.617+404.924+218.375+404.924C219.547+404.924+220.702+405.151+221.842+405.607C222.981+406.063+224.015+406.86+224.942+408C225.691+408.927+226.196+410.067+226.456+411.418C226.619+412.313+226.7+413.623+226.7+415.348L226.651+432.121L219.522+432.121L219.522+415.177C219.522+414.168+219.36+413.338+219.034+412.687C218.416+411.45+217.276+410.832+215.616+410.832C213.696+410.832+212.369+411.629+211.637+413.224C211.262+414.071+211.075+415.088+211.075+416.276L211.075+432.121L204.068+432.121L204.068+416.276C204.068+414.697+203.906+413.55+203.58+412.834Z" opacity="1"/>
<path fill="#ffffff" d="M242.032+431.291C241.267+430.705+240.519+429.85+239.786+428.727L239.786+442.594L232.901+442.594L232.901+405.509L239.566+405.509L239.566+409.44C240.315+408.285+241.113+407.373+241.959+406.706C243.505+405.518+245.344+404.924+247.477+404.924C250.585+404.924+253.218+406.071+255.375+408.366C257.531+410.661+258.609+414.03+258.609+418.473C258.609+423.161+257.556+426.733+255.448+429.191C253.34+431.649+250.626+432.878+247.306+432.878C245.19+432.878+243.432+432.349+242.032+431.291ZM245.475+427.043C247.411+427.043+248.889+426.294+249.906+424.797C250.923+423.299+251.432+421.305+251.432+418.815C251.432+416.764+250.964+414.95+250.028+413.371C249.092+411.792+247.574+411.003+245.475+411.003C242.952+411.003+241.218+412.199+240.274+414.591C239.786+415.861+239.542+417.472+239.542+419.425C239.542+422.518+240.364+424.691+242.008+425.944C242.984+426.676+244.14+427.043+245.475+427.043Z" opacity="1"/>
<path d="M271.72+405.754L276.285+405.754L276.285+410.661L271.72+410.661L271.72+432.121L264.786+432.121L264.786+410.661L260.904+410.661L260.904+405.754L264.713+405.754L264.713+404.045C264.713+401.196+265.193+399.235+266.153+398.161C267.162+396.566+269.596+395.768+273.453+395.768C273.893+395.768+274.291+395.78+274.649+395.805C275.007+395.829+275.496+395.866+276.114+395.915L276.114+401.579C275.724+401.53+275.069+401.493+274.149+401.469C273.229+401.444+272.595+401.648+272.245+402.079C271.895+402.511+271.72+402.987+271.72+403.507L271.72+405.754Z" opacity="1" fill="#ffffff"/>
<path fill="#ffffff" d="M286.856+426.408L300.821+426.408L300.821+432.121L277.848+432.121L277.848+426.701L291.495+411.174L278.775+411.174L278.775+405.509L300.357+405.509L300.357+411.296L286.856+426.408Z" opacity="1"/>
<path fill="#ffffff" opacity="1" d="M316.031+433C312.646+433+309.659+431.909+307.071+429.728C304.483+427.547+303.189+423.999+303.189+419.084C303.189+414.478+304.357+410.946+306.693+408.488C309.028+406.03+312.06+404.801+315.787+404.801C318.001+404.801+319.994+405.216+321.769+406.047C323.543+406.877+325.007+408.187+326.163+409.977C327.205+411.556+327.88+413.387+328.189+415.47C328.368+416.691+328.442+418.449+328.409+420.744L310.196+420.744C310.294+423.413+311.132+425.285+312.711+426.359C313.671+427.026+314.827+427.36+316.178+427.36C317.61+427.36+318.774+426.953+319.669+426.139C320.157+425.7+320.589+425.09+320.963+424.308L328.067+424.308C327.888+425.887+327.066+427.49+325.602+429.118C323.323+431.706+320.133+433+316.031+433ZM315.787+410.539C314.176+410.539+312.927+411.043+312.04+412.052C311.153+413.062+310.595+414.429+310.367+416.154L321.183+416.154C321.069+414.315+320.511+412.919+319.51+411.967C318.509+411.015+317.268+410.539+315.787+410.539Z"/>
<path opacity="1" fill="#ffffff" d="M347.306+411.955C346.964+411.938+346.687+411.93+346.476+411.93C343.676+411.93+341.796+412.842+340.836+414.665C340.299+415.69+340.03+417.269+340.03+419.401L340.03+432.121L333.023+432.121L333.023+405.509L339.664+405.509L339.664+410.148C340.738+408.374+341.674+407.161+342.472+406.51C343.774+405.42+345.466+404.875+347.55+404.875C347.68+404.875+347.79+404.879+347.879+404.887C347.969+404.895+348.168+404.907+348.478+404.924L348.478+412.052C348.038+412.004+347.647+411.971+347.306+411.955Z"/>
<path opacity="1" fill="#ffffff" d="M360.831+426.799C361.108+427.075+361.954+427.214+363.37+427.214C363.582+427.214+363.806+427.209+364.042+427.201C364.278+427.193+364.509+427.181+364.737+427.165L364.737+432.365L361.441+432.487C358.154+432.601+355.908+432.031+354.703+430.778C353.922+429.98+353.531+428.752+353.531+427.091L353.531+410.71L349.82+410.71L349.82+405.754L353.531+405.754L353.531+398.332L360.416+398.332L360.416+405.754L364.737+405.754L364.737+410.71L360.416+410.71L360.416+424.772C360.416+425.863+360.554+426.538+360.831+426.799Z"/>
<path opacity="1" fill="#ffffff" d="M376.358+405.509L376.358+432.121L369.303+432.121L369.303+405.509L376.358+405.509ZM376.358+395.915L376.358+402.336L369.303+402.336L369.303+395.915L376.358+395.915Z"/>
<path d="M395.914+405.754L395.914+410.661L391.349+410.661L391.349+432.121L384.415+432.121L384.415+410.661L380.533+410.661L380.533+405.754L384.342+405.754L384.342+404.045C384.342+401.213+384.968+399.105+386.222+397.721C387.345+396.419+389.632+395.768+393.082+395.768C393.505+395.768+393.937+395.785+394.376+395.817C394.815+395.85+395.271+395.882+395.743+395.915L395.743+401.579C395.418+401.562+395.1+401.55+394.791+401.542C394.482+401.534+394.107+401.53+393.668+401.53C392.577+401.53+391.91+401.831+391.666+402.433C391.422+403.035+391.316+403.979+391.349+405.265L391.349+405.754L395.914+405.754ZM400.04+432.121L400.04+405.632L406.974+405.632L406.974+432.121L400.04+432.121ZM400.04+402.262L400.04+395.915L406.852+395.915L406.852+402.262L400.04+402.262Z" opacity="1" fill="#ffffff"/>
<path opacity="1" fill="#ffffff" d="M420.401+415.641L429.068+405.632L437.687+405.632L428.385+415.812L438.053+432.121L429.654+432.121L423.282+420.744L420.401+423.747L420.401+432.121L413.565+432.121L413.565+396.257L420.401+396.257L420.401+415.641Z"/>
<path fill="#ffffff" opacity="1" d="M443.424+417.936C444.807+417.139+446.842+416.569+449.527+416.227L451.896+415.934C453.181+415.771+454.101+415.568+454.654+415.324C455.647+414.901+456.144+414.242+456.144+413.346C456.144+412.256+455.765+411.503+455.008+411.088C454.251+410.673+453.141+410.465+451.676+410.465C450.032+410.465+448.868+410.872+448.185+411.686C447.696+412.288+447.371+413.102+447.208+414.128L440.494+414.128C440.641+411.8+441.292+409.888+442.447+408.39C444.286+406.047+447.444+404.875+451.92+404.875C454.833+404.875+457.421+405.452+459.684+406.608C461.946+407.764+463.077+409.945+463.077+413.151L463.077+425.358C463.077+426.204+463.093+427.23+463.126+428.434C463.175+429.346+463.313+429.964+463.541+430.29C463.769+430.615+464.111+430.884+464.566+431.095L464.566+432.121L456.998+432.121C456.786+431.584+456.64+431.079+456.559+430.607C456.477+430.135+456.412+429.598+456.363+428.996C455.403+430.037+454.296+430.924+453.043+431.657C451.546+432.52+449.853+432.951+447.965+432.951C445.556+432.951+443.566+432.263+441.996+430.888C440.425+429.513+439.64+427.563+439.64+425.041C439.64+421.769+440.901+419.401+443.424+417.936ZM454.166+426.579C455.419+425.7+456.07+424.097+456.119+421.769L456.119+419.181C455.68+419.458+455.236+419.682+454.789+419.853C454.341+420.024+453.727+420.182+452.945+420.329L451.383+420.622C449.918+420.882+448.868+421.2+448.233+421.574C447.159+422.209+446.622+423.193+446.622+424.528C446.622+425.716+446.952+426.575+447.611+427.104C448.27+427.633+449.072+427.897+450.016+427.897C451.513+427.897+452.896+427.458+454.166+426.579Z"/>
<path opacity="1" fill="#ffffff" d="M477.53+426.799C477.807+427.075+478.653+427.214+480.069+427.214C480.281+427.214+480.505+427.209+480.741+427.201C480.977+427.193+481.209+427.181+481.437+427.165L481.437+432.365L478.141+432.487C474.853+432.601+472.607+432.031+471.402+430.778C470.621+429.98+470.23+428.752+470.23+427.091L470.23+410.71L466.52+410.71L466.52+405.754L470.23+405.754L470.23+398.332L477.115+398.332L477.115+405.754L481.437+405.754L481.437+410.71L477.115+410.71L477.115+424.772C477.115+425.863+477.254+426.538+477.53+426.799Z"/>
<text text-anchor="start" font-size="40" fill="#ffffff" y="0" font-family="Helvetica-Bold" transform="matrix(1 0 0 1 170 451.12)" opacity="1" x="0">
<tspan textLength="600.273" y="39" x="0" id="validity">Vollständig seit 01.01.2022 (3/3)</tspan>
</text>
<text y="0" fill="#ffffff" transform="matrix(1 0 0 1 252.604 1440)" font-family="Helvetica-Bold" x="0" font-size="70" opacity="1" text-anchor="middle">
<tspan y="68" x="290.896" id="name">Max Mustermann</tspan>
</text>
<path d="M169.676+513.62L910.324+513.62C926.714+513.62+940+526.972+940+543.443L940+1383.8C940+1400.27+926.714+1413.62+910.324+1413.62L169.676+1413.62C153.286+1413.62+140+1400.27+140+1383.8L140+543.443C140+526.972+153.286+513.62+169.676+513.62Z" fill="#ffffff" opacity="1"/>
<path opacity="1" fill="#000000" d="M182.338+1304.65C183.215+1305.9+183.814+1307.26+184.133+1308.71C184.452+1310.17+184.611+1311.56+184.611+1312.88C184.611+1316.23+183.939+1319.07+182.594+1321.4C180.772+1324.53+177.957+1326.1+174.152+1326.1L163.3+1326.1L163.3+1300.9L174.152+1300.9C175.713+1300.93+177.012+1301.11+178.049+1301.45C179.815+1302.03+181.244+1303.1+182.338+1304.65ZM178.066+1307.33C177.257+1305.96+175.656+1305.28+173.263+1305.28L168.41+1305.28L168.41+1321.72L173.263+1321.72C175.747+1321.72+177.479+1320.5+178.459+1318.05C178.994+1316.7+179.262+1315.1+179.262+1313.24C179.262+1310.68+178.863+1308.71+178.066+1307.33Z"/>
<path opacity="1" fill="#000000" d="M193.19+1307.47L193.19+1326.1L188.251+1326.1L188.251+1307.47L193.19+1307.47ZM193.19+1300.75L193.19+1305.25L188.251+1305.25L188.251+1300.75L193.19+1300.75Z"/>
<path opacity="1" fill="#000000" d="M205.426+1326.71C203.057+1326.71+200.966+1325.95+199.155+1324.42C197.343+1322.89+196.437+1320.41+196.437+1316.97C196.437+1313.74+197.255+1311.27+198.89+1309.55C200.525+1307.83+202.647+1306.97+205.256+1306.97C206.805+1306.97+208.201+1307.26+209.443+1307.84C210.684+1308.42+211.71+1309.34+212.519+1310.59C213.248+1311.7+213.721+1312.98+213.937+1314.44C214.063+1315.29+214.114+1316.52+214.091+1318.13L201.342+1318.13C201.41+1320+201.997+1321.31+203.102+1322.06C203.774+1322.53+204.583+1322.76+205.529+1322.76C206.532+1322.76+207.346+1322.48+207.973+1321.91C208.315+1321.6+208.617+1321.17+208.879+1320.63L213.852+1320.63C213.726+1321.73+213.151+1322.85+212.126+1323.99C210.531+1325.8+208.298+1326.71+205.426+1326.71ZM205.256+1310.99C204.128+1310.99+203.253+1311.34+202.632+1312.05C202.011+1312.75+201.621+1313.71+201.462+1314.92L209.032+1314.92C208.953+1313.63+208.562+1312.65+207.862+1311.99C207.161+1311.32+206.292+1310.99+205.256+1310.99Z"/>
<path fill="#000000" d="M222.328+1311.16C221.873+1311.49+221.645+1311.88+221.645+1312.32C221.645+1312.88+221.884+1313.28+222.363+1313.53C222.841+1313.8+224.533+1314.25+227.438+1314.88C229.375+1315.34+230.828+1316.03+231.796+1316.95C232.753+1317.89+233.232+1319.05+233.232+1320.46C233.232+1322.3+232.545+1323.81+231.172+1324.98C229.799+1326.14+227.677+1326.73+224.806+1326.73C221.878+1326.73+219.716+1326.11+218.321+1324.87C216.925+1323.64+216.227+1322.06+216.227+1320.15L221.166+1320.15C221.269+1321.01+221.491+1321.63+221.833+1321.99C222.437+1322.64+223.553+1322.97+225.182+1322.97C226.139+1322.97+226.9+1322.83+227.464+1322.54C228.028+1322.26+228.31+1321.83+228.31+1321.26C228.31+1320.71+228.082+1320.3+227.626+1320.01C227.17+1319.73+225.479+1319.24+222.551+1318.54C220.443+1318.02+218.956+1317.36+218.09+1316.58C217.224+1315.8+216.791+1314.68+216.791+1313.23C216.791+1311.51+217.466+1310.03+218.816+1308.79C220.166+1307.56+222.066+1306.94+224.516+1306.94C226.84+1306.94+228.734+1307.4+230.198+1308.33C231.662+1309.26+232.502+1310.86+232.719+1313.14L227.848+1313.14C227.78+1312.51+227.603+1312.02+227.319+1311.65C226.783+1310.99+225.872+1310.66+224.584+1310.66C223.525+1310.66+222.773+1310.83+222.328+1311.16Z" opacity="1"/>
<path fill="#000000" d="M244.357+1326.71C241.987+1326.71+239.897+1325.95+238.085+1324.42C236.274+1322.89+235.368+1320.41+235.368+1316.97C235.368+1313.74+236.185+1311.27+237.82+1309.55C239.455+1307.83+241.577+1306.97+244.186+1306.97C245.736+1306.97+247.131+1307.26+248.373+1307.84C249.615+1308.42+250.641+1309.34+251.449+1310.59C252.179+1311.7+252.651+1312.98+252.868+1314.44C252.993+1315.29+253.044+1316.52+253.022+1318.13L240.273+1318.13C240.341+1320+240.928+1321.31+242.033+1322.06C242.705+1322.53+243.514+1322.76+244.46+1322.76C245.462+1322.76+246.277+1322.48+246.904+1321.91C247.245+1321.6+247.547+1321.17+247.809+1320.63L252.782+1320.63C252.657+1321.73+252.082+1322.85+251.056+1323.99C249.461+1325.8+247.228+1326.71+244.357+1326.71ZM244.186+1310.99C243.058+1310.99+242.184+1311.34+241.563+1312.05C240.942+1312.75+240.552+1313.71+240.392+1314.92L247.963+1314.92C247.883+1313.63+247.493+1312.65+246.792+1311.99C246.092+1311.32+245.223+1310.99+244.186+1310.99Z" opacity="1"/>
<path d="M266.249+1311.98C266.01+1311.97+265.816+1311.96+265.668+1311.96C263.709+1311.96+262.393+1312.6+261.72+1313.88C261.344+1314.59+261.156+1315.7+261.156+1317.19L261.156+1326.1L256.252+1326.1L256.252+1307.47L260.9+1307.47L260.9+1310.71C261.652+1309.47+262.307+1308.62+262.865+1308.17C263.777+1307.4+264.962+1307.02+266.42+1307.02C266.511+1307.02+266.588+1307.03+266.651+1307.03C266.714+1307.04+266.853+1307.05+267.07+1307.06L267.07+1312.05C266.762+1312.01+266.488+1311.99+266.249+1311.98Z" fill="#000000" opacity="1"/>
<path fill="#000000" d="M299.421+1303.19C301.973+1305.55+303.249+1308.85+303.249+1313.09C303.249+1315.33+302.975+1317.21+302.428+1318.73C301.984+1320.18+301.329+1321.38+300.463+1322.34L303.368+1325.05L300.617+1327.92L297.575+1325.05C296.652+1325.61+295.855+1326+295.182+1326.23C294.054+1326.61+292.704+1326.8+291.132+1326.8C287.851+1326.8+285.139+1325.82+282.997+1323.86C280.4+1321.5+279.101+1318.03+279.101+1313.47C279.101+1308.86+280.434+1305.38+283.1+1303.02C285.276+1301.1+287.982+1300.14+291.217+1300.14C294.476+1300.14+297.21+1301.16+299.421+1303.19ZM291.508+1319.26L294.225+1316.42L296.772+1318.85C297.17+1318.03+297.45+1317.31+297.609+1316.7C297.86+1315.77+297.985+1314.7+297.985+1313.47C297.985+1310.64+297.407+1308.46+296.25+1306.91C295.094+1305.37+293.405+1304.6+291.183+1304.6C289.098+1304.6+287.435+1305.34+286.193+1306.82C284.951+1308.3+284.33+1310.51+284.33+1313.47C284.33+1316.92+285.219+1319.39+286.996+1320.88C288.147+1321.85+289.526+1322.34+291.132+1322.34C291.736+1322.34+292.317+1322.26+292.875+1322.11C293.183+1322.03+293.576+1321.89+294.054+1321.69L291.508+1319.26Z" opacity="1"/>
<path d="M323.825+1301.55C324.771+1301.95+325.574+1302.54+326.235+1303.31C326.781+1303.95+327.214+1304.66+327.533+1305.43C327.852+1306.21+328.012+1307.09+328.012+1308.08C328.012+1309.28+327.71+1310.46+327.106+1311.61C326.502+1312.77+325.505+1313.59+324.115+1314.06C325.278+1314.53+326.101+1315.19+326.585+1316.05C327.069+1316.92+327.311+1318.23+327.311+1319.99L327.311+1321.69C327.311+1322.84+327.357+1323.62+327.448+1324.03C327.585+1324.68+327.904+1325.16+328.405+1325.46L328.405+1326.1L322.612+1326.1C322.452+1325.54+322.338+1325.09+322.27+1324.75C322.133+1324.04+322.059+1323.32+322.048+1322.57L322.013+1320.23C321.991+1318.63+321.697+1317.56+321.133+1317.02C320.569+1316.48+319.513+1316.22+317.963+1316.22L312.529+1316.22L312.529+1326.1L307.384+1326.1L307.384+1300.9L319.74+1300.9C321.506+1300.94+322.868+1301.16+323.825+1301.55ZM322.731+1308.8C322.731+1307.27+322.224+1306.25+321.21+1305.72C320.641+1305.43+319.786+1305.28+318.647+1305.28L312.529+1305.28L312.529+1312.05L318.493+1312.05C319.678+1312.05+320.566+1311.91+321.159+1311.64C322.207+1311.16+322.731+1310.21+322.731+1308.8Z" opacity="1" fill="#000000"/>
<path fill="#000000" opacity="1" d="M330.678+1314.03L340.488+1314.03L340.488+1318.64L330.678+1318.64L330.678+1314.03Z"/>
<path opacity="1" fill="#000000" d="M354.758+1326.8C351.134+1326.8+348.286+1325.63+346.213+1323.31C344.139+1320.97+343.102+1317.77+343.102+1313.7C343.102+1309.31+344.281+1305.92+346.64+1303.54C348.691+1301.46+351.3+1300.43+354.467+1300.43C358.705+1300.43+361.804+1301.82+363.764+1304.6C364.846+1306.16+365.427+1307.72+365.507+1309.3L360.243+1309.3C359.902+1308.09+359.463+1307.18+358.927+1306.56C357.97+1305.47+356.552+1304.92+354.672+1304.92C352.758+1304.92+351.248+1305.69+350.143+1307.24C349.038+1308.78+348.486+1310.96+348.486+1313.79C348.486+1316.62+349.069+1318.73+350.237+1320.14C351.405+1321.55+352.889+1322.25+354.689+1322.25C356.535+1322.25+357.942+1321.65+358.91+1320.44C359.446+1319.79+359.89+1318.81+360.243+1317.52L365.456+1317.52C365+1320.26+363.835+1322.49+361.961+1324.22C360.087+1325.94+357.686+1326.8+354.758+1326.8Z"/>
<path d="M384.613+1309.83C386.186+1311.8+386.972+1314.13+386.972+1316.82C386.972+1319.55+386.186+1321.89+384.613+1323.83C383.041+1325.77+380.654+1326.74+377.453+1326.74C374.251+1326.74+371.864+1325.77+370.292+1323.83C368.72+1321.89+367.934+1319.55+367.934+1316.82C367.934+1314.13+368.72+1311.8+370.292+1309.83C371.864+1307.85+374.251+1306.87+377.453+1306.87C380.654+1306.87+383.041+1307.85+384.613+1309.83ZM380.717+1312.49C379.954+1311.49+378.86+1310.99+377.436+1310.99C376.012+1310.99+374.915+1311.49+374.146+1312.5C373.377+1313.51+372.992+1314.95+372.992+1316.82C372.992+1318.68+373.377+1320.13+374.146+1321.14C374.915+1322.15+376.012+1322.66+377.436+1322.66C378.86+1322.66+379.954+1322.15+380.717+1321.14C381.48+1320.13+381.862+1318.68+381.862+1316.82C381.862+1314.95+381.48+1313.51+380.717+1312.49Z" opacity="1" fill="#000000"/>
<path opacity="1" d="M400.302+1325.92C399.413+1326.43+398.308+1326.68+396.987+1326.68C394.81+1326.68+392.979+1325.8+391.492+1324.04C390.005+1322.28+389.262+1320.02+389.262+1317.26C389.262+1314.08+389.994+1311.58+391.458+1309.76C392.922+1307.93+394.879+1307.02+397.328+1307.02C398.456+1307.02+399.459+1307.27+400.336+1307.77C401.213+1308.26+401.926+1308.95+402.472+1309.83L402.472+1300.94L407.411+1300.94L407.411+1326.1L402.677+1326.1L402.677+1323.51C401.982+1324.62+401.191+1325.42+400.302+1325.92ZM398.422+1311.28C396.998+1311.28+395.953+1311.82+395.286+1312.89C394.62+1313.97+394.286+1315.31+394.286+1316.9C394.286+1318.62+394.625+1320+395.303+1321.03C395.981+1322.06+397.009+1322.57+398.388+1322.57C399.766+1322.57+400.815+1322.06+401.532+1321.04C402.25+1320.01+402.609+1318.68+402.609+1317.05C402.609+1314.78+402.034+1313.15+400.883+1312.17C400.177+1311.57+399.356+1311.28+398.422+1311.28Z" fill="#000000"/>
<path opacity="1" fill="#000000" d="M419.357+1326.71C416.987+1326.71+414.897+1325.95+413.085+1324.42C411.274+1322.89+410.368+1320.41+410.368+1316.97C410.368+1313.74+411.185+1311.27+412.82+1309.55C414.455+1307.83+416.577+1306.97+419.186+1306.97C420.736+1306.97+422.131+1307.26+423.373+1307.84C424.615+1308.42+425.641+1309.34+426.449+1310.59C427.179+1311.7+427.651+1312.98+427.868+1314.44C427.993+1315.29+428.044+1316.52+428.022+1318.13L415.273+1318.13C415.341+1320+415.928+1321.31+417.033+1322.06C417.705+1322.53+418.514+1322.76+419.46+1322.76C420.462+1322.76+421.277+1322.48+421.904+1321.91C422.245+1321.6+422.547+1321.17+422.809+1320.63L427.782+1320.63C427.657+1321.73+427.082+1322.85+426.056+1323.99C424.461+1325.8+422.228+1326.71+419.357+1326.71ZM419.186+1310.99C418.058+1310.99+417.184+1311.34+416.563+1312.05C415.942+1312.75+415.552+1313.71+415.392+1314.92L422.963+1314.92C422.883+1313.63+422.493+1312.65+421.792+1311.99C421.092+1311.32+420.223+1310.99+419.186+1310.99Z"/>
<path opacity="1" fill="#000000" d="M441.13+1300.9L446+1300.9L446+1326.1L441.13+1326.1L441.13+1300.9Z"/>
<path fill="#000000" d="M452.135+1316.17C453.104+1315.61+454.528+1315.21+456.408+1314.97L458.066+1314.76C458.966+1314.65+459.609+1314.51+459.997+1314.34C460.692+1314.04+461.039+1313.58+461.039+1312.95C461.039+1312.19+460.774+1311.66+460.245+1311.37C459.715+1311.08+458.937+1310.94+457.912+1310.94C456.761+1310.94+455.947+1311.22+455.468+1311.79C455.126+1312.21+454.898+1312.78+454.784+1313.5L450.085+1313.5C450.187+1311.87+450.643+1310.53+451.452+1309.48C452.739+1307.84+454.95+1307.02+458.083+1307.02C460.122+1307.02+461.934+1307.43+463.517+1308.24C465.101+1309.05+465.893+1310.57+465.893+1312.82L465.893+1321.36C465.893+1321.95+465.904+1322.67+465.927+1323.51C465.961+1324.15+466.058+1324.59+466.217+1324.81C466.377+1325.04+466.616+1325.23+466.935+1325.38L466.935+1326.1L461.637+1326.1C461.489+1325.72+461.387+1325.37+461.33+1325.04C461.273+1324.71+461.227+1324.33+461.193+1323.91C460.521+1324.64+459.746+1325.26+458.869+1325.77C457.821+1326.37+456.636+1326.68+455.314+1326.68C453.628+1326.68+452.235+1326.19+451.136+1325.23C450.036+1324.27+449.487+1322.91+449.487+1321.14C449.487+1318.85+450.37+1317.19+452.135+1316.17ZM459.655+1322.22C460.532+1321.6+460.988+1320.48+461.022+1318.85L461.022+1317.04C460.715+1317.23+460.404+1317.39+460.091+1317.51C459.777+1317.63+459.347+1317.74+458.801+1317.84L457.707+1318.05C456.681+1318.23+455.947+1318.45+455.502+1318.71C454.75+1319.16+454.374+1319.85+454.374+1320.78C454.374+1321.61+454.605+1322.21+455.066+1322.58C455.528+1322.95+456.089+1323.14+456.75+1323.14C457.798+1323.14+458.766+1322.83+459.655+1322.22ZM459.501+1300.58L463.962+1300.58L463.962+1304.63L459.501+1304.63L459.501+1300.58ZM452.665+1300.58L457.126+1300.58L457.126+1304.63L452.665+1304.63L452.665+1300.58Z" opacity="1"/>
<path opacity="1" d="M475.173+1311.16C474.717+1311.49+474.489+1311.88+474.489+1312.32C474.489+1312.88+474.728+1313.28+475.207+1313.53C475.685+1313.8+477.377+1314.25+480.282+1314.88C482.219+1315.34+483.672+1316.03+484.64+1316.95C485.597+1317.89+486.076+1319.05+486.076+1320.46C486.076+1322.3+485.389+1323.81+484.017+1324.98C482.644+1326.14+480.522+1326.73+477.651+1326.73C474.723+1326.73+472.561+1326.11+471.165+1324.87C469.769+1323.64+469.072+1322.06+469.072+1320.15L474.01+1320.15C474.113+1321.01+474.335+1321.63+474.677+1321.99C475.281+1322.64+476.397+1322.97+478.027+1322.97C478.984+1322.97+479.744+1322.83+480.308+1322.54C480.872+1322.26+481.154+1321.83+481.154+1321.26C481.154+1320.71+480.926+1320.3+480.47+1320.01C480.015+1319.73+478.323+1319.24+475.395+1318.54C473.287+1318.02+471.8+1317.36+470.934+1316.58C470.068+1315.8+469.635+1314.68+469.635+1313.23C469.635+1311.51+470.311+1310.03+471.661+1308.79C473.011+1307.56+474.911+1306.94+477.36+1306.94C479.684+1306.94+481.578+1307.4+483.042+1308.33C484.506+1309.26+485.347+1310.86+485.563+1313.14L480.693+1313.14C480.624+1312.51+480.448+1312.02+480.163+1311.65C479.627+1310.99+478.716+1310.66+477.428+1310.66C476.369+1310.66+475.617+1310.83+475.173+1311.16Z" fill="#000000"/>
<path d="M494.638+1311.16C494.182+1311.49+493.954+1311.88+493.954+1312.32C493.954+1312.88+494.194+1313.28+494.672+1313.53C495.151+1313.8+496.842+1314.25+499.748+1314.88C501.685+1315.34+503.137+1316.03+504.106+1316.95C505.063+1317.89+505.541+1319.05+505.541+1320.46C505.541+1322.3+504.855+1323.81+503.482+1324.98C502.109+1326.14+499.987+1326.73+497.116+1326.73C494.188+1326.73+492.026+1326.11+490.63+1324.87C489.235+1323.64+488.537+1322.06+488.537+1320.15L493.476+1320.15C493.578+1321.01+493.801+1321.63+494.142+1321.99C494.746+1322.64+495.863+1322.97+497.492+1322.97C498.449+1322.97+499.209+1322.83+499.773+1322.54C500.337+1322.26+500.619+1321.83+500.619+1321.26C500.619+1320.71+500.391+1320.3+499.936+1320.01C499.48+1319.73+497.788+1319.24+494.86+1318.54C492.752+1318.02+491.266+1317.36+490.4+1316.58C489.534+1315.8+489.101+1314.68+489.101+1313.23C489.101+1311.51+489.776+1310.03+491.126+1308.79C492.476+1307.56+494.376+1306.94+496.825+1306.94C499.15+1306.94+501.044+1307.4+502.508+1308.33C503.972+1309.26+504.812+1310.86+505.029+1313.14L500.158+1313.14C500.09+1312.51+499.913+1312.02+499.628+1311.65C499.093+1310.99+498.181+1310.66+496.894+1310.66C495.834+1310.66+495.082+1310.83+494.638+1311.16Z" opacity="1" fill="#000000"/>
<path fill="#000000" opacity="1" d="M514.941+1322.37C515.134+1322.56+515.727+1322.66+516.718+1322.66C516.866+1322.66+517.023+1322.66+517.188+1322.65C517.353+1322.65+517.516+1322.64+517.675+1322.63L517.675+1326.27L515.368+1326.35C513.066+1326.43+511.494+1326.03+510.651+1325.16C510.104+1324.6+509.831+1323.74+509.831+1322.57L509.831+1311.11L507.233+1311.11L507.233+1307.64L509.831+1307.64L509.831+1302.44L514.65+1302.44L514.65+1307.64L517.675+1307.64L517.675+1311.11L514.65+1311.11L514.65+1320.95C514.65+1321.71+514.747+1322.19+514.941+1322.37Z"/>
<path d="M535.483+1311.16C535.027+1311.49+534.799+1311.88+534.799+1312.32C534.799+1312.88+535.038+1313.28+535.517+1313.53C535.995+1313.8+537.687+1314.25+540.592+1314.88C542.529+1315.34+543.982+1316.03+544.95+1316.95C545.907+1317.89+546.386+1319.05+546.386+1320.46C546.386+1322.3+545.7+1323.81+544.327+1324.98C542.954+1326.14+540.832+1326.73+537.961+1326.73C535.033+1326.73+532.871+1326.11+531.475+1324.87C530.079+1323.64+529.382+1322.06+529.382+1320.15L534.321+1320.15C534.423+1321.01+534.645+1321.63+534.987+1321.99C535.591+1322.64+536.707+1322.97+538.337+1322.97C539.294+1322.97+540.054+1322.83+540.618+1322.54C541.182+1322.26+541.464+1321.83+541.464+1321.26C541.464+1320.71+541.236+1320.3+540.78+1320.01C540.325+1319.73+538.633+1319.24+535.705+1318.54C533.597+1318.02+532.11+1317.36+531.244+1316.58C530.378+1315.8+529.946+1314.68+529.946+1313.23C529.946+1311.51+530.621+1310.03+531.971+1308.79C533.321+1307.56+535.221+1306.94+537.67+1306.94C539.994+1306.94+541.888+1307.4+543.353+1308.33C544.817+1309.26+545.657+1310.86+545.873+1313.14L541.003+1313.14C540.934+1312.51+540.758+1312.02+540.473+1311.65C539.937+1310.99+539.026+1310.66+537.738+1310.66C536.679+1310.66+535.927+1310.83+535.483+1311.16Z" opacity="1" fill="#000000"/>
<path d="M554.999+1307.47L554.999+1326.1L550.06+1326.1L550.06+1307.47L554.999+1307.47ZM554.999+1300.75L554.999+1305.25L550.06+1305.25L550.06+1300.75L554.999+1300.75Z" fill="#000000" opacity="1"/>
<path opacity="1" d="M567.594+1311.14C565.954+1311.14+564.832+1311.96+564.228+1313.59C563.909+1314.45+563.749+1315.6+563.749+1317.04C563.749+1318.4+563.909+1319.5+564.228+1320.34C564.809+1321.89+565.903+1322.66+567.509+1322.66C568.648+1322.66+569.457+1322.35+569.936+1321.74C570.414+1321.12+570.705+1320.32+570.807+1319.34L575.78+1319.34C575.667+1320.83+575.131+1322.23+574.174+1323.55C572.647+1325.68+570.386+1326.74+567.389+1326.74C564.393+1326.74+562.188+1325.86+560.776+1324.08C559.363+1322.3+558.656+1319.99+558.656+1317.16C558.656+1313.96+559.437+1311.47+560.998+1309.69C562.559+1307.91+564.712+1307.02+567.458+1307.02C569.793+1307.02+571.705+1307.55+573.191+1308.6C574.678+1309.64+575.558+1311.49+575.832+1314.15L570.842+1314.15C570.75+1313.45+570.517+1312.83+570.141+1312.27C569.594+1311.52+568.745+1311.14+567.594+1311.14Z" fill="#000000"/>
<path opacity="1" fill="#000000" d="M590.529+1312.34C590.085+1311.47+589.242+1311.04+588+1311.04C586.712+1311.04+585.735+1311.47+585.069+1312.33C584.402+1313.19+584.069+1314.42+584.069+1316.01L584.069+1326.1L579.216+1326.1L579.216+1300.99L584.069+1300.99L584.069+1309.89C584.775+1308.81+585.593+1308.06+586.521+1307.63C587.45+1307.2+588.427+1306.99+589.452+1306.99C590.603+1306.99+591.648+1307.19+592.588+1307.59C593.528+1307.99+594.3+1308.6+594.904+1309.42C595.417+1310.11+595.73+1310.83+595.844+1311.56C595.958+1312.3+596.015+1313.49+596.015+1315.16L596.015+1326.1L591.042+1326.1L591.042+1314.76C591.042+1313.76+590.871+1312.95+590.529+1312.34Z"/>
<path d="M615.138+1326.1L608.456+1307.47L613.925+1307.47L617.804+1321.21L621.769+1307.47L626.999+1307.47L620.282+1326.1L615.138+1326.1Z" opacity="1" fill="#000000"/>
<path d="M637.27+1326.71C634.9+1326.71+632.809+1325.95+630.998+1324.42C629.186+1322.89+628.28+1320.41+628.28+1316.97C628.28+1313.74+629.098+1311.27+630.733+1309.55C632.368+1307.83+634.49+1306.97+637.099+1306.97C638.648+1306.97+640.044+1307.26+641.286+1307.84C642.528+1308.42+643.553+1309.34+644.362+1310.59C645.091+1311.7+645.564+1312.98+645.78+1314.44C645.906+1315.29+645.957+1316.52+645.934+1318.13L633.185+1318.13C633.254+1320+633.84+1321.31+634.946+1322.06C635.618+1322.53+636.427+1322.76+637.372+1322.76C638.375+1322.76+639.19+1322.48+639.816+1321.91C640.158+1321.6+640.46+1321.17+640.722+1320.63L645.695+1320.63C645.57+1321.73+644.994+1322.85+643.969+1323.99C642.374+1325.8+640.141+1326.71+637.27+1326.71ZM637.099+1310.99C635.971+1310.99+635.096+1311.34+634.476+1312.05C633.855+1312.75+633.464+1313.71+633.305+1314.92L640.876+1314.92C640.796+1313.63+640.406+1312.65+639.705+1311.99C639.004+1311.32+638.136+1310.99+637.099+1310.99Z" fill="#000000" opacity="1"/>
<path d="M659.162+1311.98C658.923+1311.97+658.729+1311.96+658.581+1311.96C656.621+1311.96+655.305+1312.6+654.633+1313.88C654.257+1314.59+654.069+1315.7+654.069+1317.19L654.069+1326.1L649.164+1326.1L649.164+1307.47L653.813+1307.47L653.813+1310.71C654.565+1309.47+655.22+1308.62+655.778+1308.17C656.69+1307.4+657.874+1307.02+659.333+1307.02C659.424+1307.02+659.501+1307.03+659.563+1307.03C659.626+1307.04+659.766+1307.05+659.982+1307.06L659.982+1312.05C659.675+1312.01+659.401+1311.99+659.162+1311.98Z" opacity="1" fill="#000000"/>
<path d="M662.939+1300.9L667.809+1300.9L667.809+1326.1L662.939+1326.1L662.939+1300.9Z" opacity="1" fill="#000000"/>
<path opacity="1" fill="#000000" d="M673.945+1316.17C674.913+1315.61+676.337+1315.21+678.217+1314.97L679.875+1314.76C680.775+1314.65+681.419+1314.51+681.806+1314.34C682.501+1314.04+682.848+1313.58+682.848+1312.95C682.848+1312.19+682.583+1311.66+682.054+1311.37C681.524+1311.08+680.746+1310.94+679.721+1310.94C678.57+1310.94+677.756+1311.22+677.277+1311.79C676.935+1312.21+676.707+1312.78+676.593+1313.5L671.894+1313.5C671.996+1311.87+672.452+1310.53+673.261+1309.48C674.548+1307.84+676.759+1307.02+679.892+1307.02C681.931+1307.02+683.743+1307.43+685.326+1308.24C686.91+1309.05+687.702+1310.57+687.702+1312.82L687.702+1321.36C687.702+1321.95+687.713+1322.67+687.736+1323.51C687.77+1324.15+687.867+1324.59+688.027+1324.81C688.186+1325.04+688.425+1325.23+688.744+1325.38L688.744+1326.1L683.447+1326.1C683.298+1325.72+683.196+1325.37+683.139+1325.04C683.082+1324.71+683.036+1324.33+683.002+1323.91C682.33+1324.64+681.555+1325.26+680.678+1325.77C679.63+1326.37+678.445+1326.68+677.123+1326.68C675.437+1326.68+674.044+1326.19+672.945+1325.23C671.845+1324.27+671.296+1322.91+671.296+1321.14C671.296+1318.85+672.179+1317.19+673.945+1316.17ZM681.464+1322.22C682.341+1321.6+682.797+1320.48+682.831+1318.85L682.831+1317.04C682.524+1317.23+682.213+1317.39+681.9+1317.51C681.587+1317.63+681.156+1317.74+680.61+1317.84L679.516+1318.05C678.49+1318.23+677.756+1318.45+677.311+1318.71C676.559+1319.16+676.183+1319.85+676.183+1320.78C676.183+1321.61+676.414+1322.21+676.875+1322.58C677.337+1322.95+677.898+1323.14+678.559+1323.14C679.607+1323.14+680.575+1322.83+681.464+1322.22ZM681.31+1300.58L685.771+1300.58L685.771+1304.63L681.31+1304.63L681.31+1300.58ZM674.474+1300.58L678.935+1300.58L678.935+1304.63L674.474+1304.63L674.474+1300.58Z"/>
<path fill="#000000" d="M696.982+1311.16C696.526+1311.49+696.298+1311.88+696.298+1312.32C696.298+1312.88+696.537+1313.28+697.016+1313.53C697.494+1313.8+699.186+1314.25+702.092+1314.88C704.028+1315.34+705.481+1316.03+706.449+1316.95C707.406+1317.89+707.885+1319.05+707.885+1320.46C707.885+1322.3+707.199+1323.81+705.826+1324.98C704.453+1326.14+702.331+1326.73+699.46+1326.73C696.532+1326.73+694.37+1326.11+692.974+1324.87C691.578+1323.64+690.881+1322.06+690.881+1320.15L695.82+1320.15C695.922+1321.01+696.144+1321.63+696.486+1321.99C697.09+1322.64+698.206+1322.97+699.836+1322.97C700.793+1322.97+701.553+1322.83+702.117+1322.54C702.681+1322.26+702.963+1321.83+702.963+1321.26C702.963+1320.71+702.735+1320.3+702.28+1320.01C701.824+1319.73+700.132+1319.24+697.204+1318.54C695.096+1318.02+693.609+1317.36+692.743+1316.58C691.877+1315.8+691.445+1314.68+691.445+1313.23C691.445+1311.51+692.12+1310.03+693.47+1308.79C694.82+1307.56+696.72+1306.94+699.169+1306.94C701.493+1306.94+703.388+1307.4+704.852+1308.33C706.316+1309.26+707.156+1310.86+707.372+1313.14L702.502+1313.14C702.433+1312.51+702.257+1312.02+701.972+1311.65C701.436+1310.99+700.525+1310.66+699.238+1310.66C698.178+1310.66+697.426+1310.83+696.982+1311.16Z" opacity="1"/>
<path d="M716.447+1311.16C715.991+1311.49+715.763+1311.88+715.763+1312.32C715.763+1312.88+716.003+1313.28+716.481+1313.53C716.96+1313.8+718.652+1314.25+721.557+1314.88C723.494+1315.34+724.946+1316.03+725.915+1316.95C726.872+1317.89+727.35+1319.05+727.35+1320.46C727.35+1322.3+726.664+1323.81+725.291+1324.98C723.918+1326.14+721.796+1326.73+718.925+1326.73C715.997+1326.73+713.835+1326.11+712.439+1324.87C711.044+1323.64+710.346+1322.06+710.346+1320.15L715.285+1320.15C715.387+1321.01+715.61+1321.63+715.951+1321.99C716.555+1322.64+717.672+1322.97+719.301+1322.97C720.258+1322.97+721.019+1322.83+721.582+1322.54C722.146+1322.26+722.428+1321.83+722.428+1321.26C722.428+1320.71+722.201+1320.3+721.745+1320.01C721.289+1319.73+719.597+1319.24+716.669+1318.54C714.561+1318.02+713.075+1317.36+712.209+1316.58C711.343+1315.8+710.91+1314.68+710.91+1313.23C710.91+1311.51+711.585+1310.03+712.935+1308.79C714.285+1307.56+716.185+1306.94+718.634+1306.94C720.959+1306.94+722.853+1307.4+724.317+1308.33C725.781+1309.26+726.621+1310.86+726.838+1313.14L721.967+1313.14C721.899+1312.51+721.722+1312.02+721.437+1311.65C720.902+1310.99+719.99+1310.66+718.703+1310.66C717.643+1310.66+716.891+1310.83+716.447+1311.16Z" fill="#000000" opacity="1"/>
<path d="M731.059+1300.9L735.929+1300.9L735.929+1326.1L731.059+1326.1L731.059+1300.9Z" fill="#000000" opacity="1"/>
<path fill="#000000" d="M745.688+1307.47L745.688+1326.1L740.749+1326.1L740.749+1307.47L745.688+1307.47ZM745.688+1300.75L745.688+1305.25L740.749+1305.25L740.749+1300.75L745.688+1300.75Z" opacity="1"/>
<path opacity="1" fill="#000000" d="M758.283+1311.14C756.642+1311.14+755.52+1311.96+754.916+1313.59C754.597+1314.45+754.438+1315.6+754.438+1317.04C754.438+1318.4+754.597+1319.5+754.916+1320.34C755.497+1321.89+756.591+1322.66+758.197+1322.66C759.337+1322.66+760.146+1322.35+760.624+1321.74C761.103+1321.12+761.393+1320.32+761.496+1319.34L766.469+1319.34C766.355+1320.83+765.82+1322.23+764.863+1323.55C763.336+1325.68+761.074+1326.74+758.078+1326.74C755.081+1326.74+752.877+1325.86+751.464+1324.08C750.051+1322.3+749.345+1319.99+749.345+1317.16C749.345+1313.96+750.125+1311.47+751.686+1309.69C753.247+1307.91+755.4+1307.02+758.146+1307.02C760.482+1307.02+762.393+1307.55+763.88+1308.6C765.367+1309.64+766.247+1311.49+766.52+1314.15L761.53+1314.15C761.439+1313.45+761.205+1312.83+760.829+1312.27C760.282+1311.52+759.434+1311.14+758.283+1311.14Z"/>
<path fill="#000000" d="M781.217+1312.34C780.773+1311.47+779.93+1311.04+778.688+1311.04C777.401+1311.04+776.424+1311.47+775.757+1312.33C775.091+1313.19+774.758+1314.42+774.758+1316.01L774.758+1326.1L769.904+1326.1L769.904+1300.99L774.758+1300.99L774.758+1309.89C775.464+1308.81+776.281+1308.06+777.21+1307.63C778.138+1307.2+779.115+1306.99+780.141+1306.99C781.292+1306.99+782.337+1307.19+783.277+1307.59C784.217+1307.99+784.989+1308.6+785.592+1309.42C786.105+1310.11+786.419+1310.83+786.532+1311.56C786.646+1312.3+786.703+1313.49+786.703+1315.16L786.703+1326.1L781.73+1326.1L781.73+1314.76C781.73+1313.76+781.559+1312.95+781.217+1312.34Z" opacity="1"/>
<path d="M811.432+1312.59C811.022+1311.69+810.219+1311.24+809.023+1311.24C807.633+1311.24+806.698+1311.69+806.22+1312.59C805.958+1313.11+805.827+1313.87+805.827+1314.88L805.827+1326.1L800.888+1326.1L800.888+1307.5L805.622+1307.5L805.622+1310.22C806.226+1309.25+806.795+1308.56+807.331+1308.15C808.276+1307.42+809.501+1307.06+811.005+1307.06C812.429+1307.06+813.58+1307.37+814.457+1308C815.164+1308.58+815.699+1309.32+816.064+1310.24C816.702+1309.14+817.494+1308.34+818.439+1307.83C819.442+1307.31+820.558+1307.06+821.789+1307.06C822.609+1307.06+823.418+1307.22+824.216+1307.54C825.013+1307.85+825.737+1308.41+826.386+1309.21C826.91+1309.86+827.263+1310.66+827.446+1311.6C827.559+1312.23+827.616+1313.15+827.616+1314.35L827.582+1326.1L822.592+1326.1L822.592+1314.23C822.592+1313.53+822.478+1312.95+822.25+1312.49C821.817+1311.63+821.02+1311.19+819.858+1311.19C818.513+1311.19+817.585+1311.75+817.072+1312.87C816.81+1313.46+816.679+1314.17+816.679+1315L816.679+1326.1L811.774+1326.1L811.774+1315C811.774+1313.9+811.66+1313.1+811.432+1312.59Z" opacity="1" fill="#000000"/>
<path opacity="1" d="M837.101+1307.47L837.101+1326.1L832.162+1326.1L832.162+1307.47L837.101+1307.47ZM837.101+1300.75L837.101+1305.25L832.162+1305.25L832.162+1300.75L837.101+1300.75Z" fill="#000000"/>
<path opacity="1" d="M847.612+1322.37C847.805+1322.56+848.398+1322.66+849.389+1322.66C849.537+1322.66+849.694+1322.66+849.859+1322.65C850.024+1322.65+850.186+1322.64+850.346+1322.63L850.346+1326.27L848.039+1326.35C845.737+1326.43+844.165+1326.03+843.322+1325.16C842.775+1324.6+842.502+1323.74+842.502+1322.57L842.502+1311.11L839.904+1311.11L839.904+1307.64L842.502+1307.64L842.502+1302.44L847.321+1302.44L847.321+1307.64L850.346+1307.64L850.346+1311.11L847.321+1311.11L847.321+1320.95C847.321+1321.71+847.418+1322.19+847.612+1322.37Z" fill="#000000"/>
<path opacity="1" fill="#000000" d="M873.041+1325.92C872.153+1326.43+871.047+1326.68+869.726+1326.68C867.55+1326.68+865.718+1325.8+864.231+1324.04C862.745+1322.28+862.001+1320.02+862.001+1317.26C862.001+1314.08+862.733+1311.58+864.197+1309.76C865.661+1307.93+867.618+1307.02+870.068+1307.02C871.196+1307.02+872.198+1307.27+873.075+1307.77C873.953+1308.26+874.665+1308.95+875.212+1309.83L875.212+1300.94L880.151+1300.94L880.151+1326.1L875.417+1326.1L875.417+1323.51C874.722+1324.62+873.93+1325.42+873.041+1325.92ZM871.161+1311.28C869.737+1311.28+868.692+1311.82+868.025+1312.89C867.359+1313.97+867.026+1315.31+867.026+1316.9C867.026+1318.62+867.365+1320+868.042+1321.03C868.72+1322.06+869.749+1322.57+871.127+1322.57C872.506+1322.57+873.554+1322.06+874.272+1321.04C874.989+1320.01+875.348+1318.68+875.348+1317.05C875.348+1314.78+874.773+1313.15+873.622+1312.17C872.916+1311.57+872.096+1311.28+871.161+1311.28Z"/>
<path opacity="1" fill="#000000" d="M892.096+1326.71C889.727+1326.71+887.636+1325.95+885.824+1324.42C884.013+1322.89+883.107+1320.41+883.107+1316.97C883.107+1313.74+883.925+1311.27+885.56+1309.55C887.194+1307.83+889.316+1306.97+891.926+1306.97C893.475+1306.97+894.871+1307.26+896.113+1307.84C897.354+1308.42+898.38+1309.34+899.189+1310.59C899.918+1311.7+900.391+1312.98+900.607+1314.44C900.732+1315.29+900.784+1316.52+900.761+1318.13L888.012+1318.13C888.08+1320+888.667+1321.31+889.772+1322.06C890.444+1322.53+891.253+1322.76+892.199+1322.76C893.202+1322.76+894.016+1322.48+894.643+1321.91C894.985+1321.6+895.287+1321.17+895.549+1320.63L900.522+1320.63C900.396+1321.73+899.821+1322.85+898.796+1323.99C897.201+1325.8+894.967+1326.71+892.096+1326.71ZM891.926+1310.99C890.798+1310.99+889.923+1311.34+889.302+1312.05C888.681+1312.75+888.291+1313.71+888.132+1314.92L895.702+1314.92C895.623+1313.63+895.232+1312.65+894.532+1311.99C893.831+1311.32+892.962+1310.99+891.926+1310.99Z"/>
<path fill="#000000" opacity="1" d="M913.988+1311.98C913.749+1311.97+913.556+1311.96+913.407+1311.96C911.448+1311.96+910.132+1312.6+909.46+1313.88C909.084+1314.59+908.896+1315.7+908.896+1317.19L908.896+1326.1L903.991+1326.1L903.991+1307.47L908.639+1307.47L908.639+1310.71C909.391+1309.47+910.046+1308.62+910.605+1308.17C911.516+1307.4+912.701+1307.02+914.159+1307.02C914.251+1307.02+914.327+1307.03+914.39+1307.03C914.453+1307.04+914.592+1307.05+914.809+1307.06L914.809+1312.05C914.501+1312.01+914.228+1311.99+913.988+1311.98Z"/>
<path fill="#000000" d="M173.862+1377.05C170.238+1377.05+167.39+1375.88+165.317+1373.56C163.243+1371.22+162.206+1368.02+162.206+1363.96C162.206+1359.56+163.385+1356.17+165.744+1353.79C167.795+1351.71+170.404+1350.68+173.571+1350.68C177.809+1350.68+180.908+1352.07+182.868+1354.85C183.95+1356.41+184.531+1357.97+184.611+1359.55L179.347+1359.55C179.006+1358.34+178.567+1357.43+178.031+1356.81C177.074+1355.72+175.656+1355.17+173.776+1355.17C171.862+1355.17+170.352+1355.94+169.247+1357.49C168.142+1359.03+167.59+1361.21+167.59+1364.04C167.59+1366.87+168.173+1368.98+169.341+1370.39C170.509+1371.8+171.993+1372.5+173.793+1372.5C175.639+1372.5+177.046+1371.9+178.014+1370.69C178.55+1370.04+178.994+1369.06+179.347+1367.77L184.56+1367.77C184.104+1370.51+182.939+1372.74+181.065+1374.47C179.191+1376.19+176.79+1377.05+173.862+1377.05Z" opacity="1"/>
<path fill="#000000" opacity="1" d="M203.717+1360.08C205.29+1362.05+206.076+1364.38+206.076+1367.07C206.076+1369.8+205.29+1372.14+203.717+1374.08C202.145+1376.02+199.758+1376.99+196.557+1376.99C193.355+1376.99+190.968+1376.02+189.396+1374.08C187.824+1372.14+187.038+1369.8+187.038+1367.07C187.038+1364.38+187.824+1362.05+189.396+1360.08C190.968+1358.1+193.355+1357.12+196.557+1357.12C199.758+1357.12+202.145+1358.1+203.717+1360.08ZM199.821+1362.74C199.058+1361.74+197.964+1361.24+196.54+1361.24C195.116+1361.24+194.019+1361.74+193.25+1362.75C192.481+1363.76+192.096+1365.2+192.096+1367.07C192.096+1368.93+192.481+1370.38+193.25+1371.39C194.019+1372.4+195.116+1372.91+196.54+1372.91C197.964+1372.91+199.058+1372.4+199.821+1371.39C200.584+1370.38+200.966+1368.93+200.966+1367.07C200.966+1365.2+200.584+1363.76+199.821+1362.74Z"/>
<path fill="#000000" d="M214.416+1376.35L207.734+1357.72L213.202+1357.72L217.082+1371.46L221.047+1357.72L226.276+1357.72L219.56+1376.35L214.416+1376.35Z" opacity="1"/>
<path d="M240.119+1367.29L234.77+1367.29L234.77+1376.35L229.54+1376.35L229.54+1351.15L240.512+1351.15C243.041+1351.15+245.058+1351.8+246.562+1353.1C248.066+1354.4+248.818+1356.41+248.818+1359.14C248.818+1362.11+248.066+1364.21+246.562+1365.44C245.058+1366.67+242.91+1367.29+240.119+1367.29ZM243.605+1359.17C243.605+1357.86+243.261+1356.93+242.571+1356.37C241.882+1355.81+240.916+1355.53+239.675+1355.53L234.77+1355.53L234.77+1362.95L239.675+1362.95C240.916+1362.95+241.882+1362.64+242.571+1362.04C243.261+1361.44+243.605+1360.48+243.605+1359.17Z" fill="#000000" opacity="1"/>
<path fill="#000000" d="M253.757+1366.42C254.725+1365.86+256.149+1365.46+258.029+1365.22L259.687+1365.01C260.587+1364.9+261.231+1364.76+261.618+1364.59C262.313+1364.29+262.66+1363.83+262.66+1363.2C262.66+1362.44+262.395+1361.91+261.866+1361.62C261.336+1361.33+260.558+1361.19+259.533+1361.19C258.382+1361.19+257.568+1361.47+257.089+1362.04C256.747+1362.46+256.519+1363.03+256.405+1363.75L251.706+1363.75C251.808+1362.12+252.264+1360.78+253.073+1359.73C254.36+1358.09+256.571+1357.27+259.704+1357.27C261.743+1357.27+263.555+1357.68+265.138+1358.49C266.722+1359.3+267.514+1360.82+267.514+1363.07L267.514+1371.61C267.514+1372.2+267.525+1372.92+267.548+1373.76C267.582+1374.4+267.679+1374.84+267.839+1375.06C267.998+1375.29+268.237+1375.48+268.556+1375.63L268.556+1376.35L263.259+1376.35C263.11+1375.97+263.008+1375.62+262.951+1375.29C262.894+1374.96+262.848+1374.58+262.814+1374.16C262.142+1374.89+261.367+1375.51+260.49+1376.02C259.442+1376.62+258.257+1376.93+256.935+1376.93C255.249+1376.93+253.856+1376.44+252.757+1375.48C251.657+1374.52+251.108+1373.16+251.108+1371.39C251.108+1369.1+251.991+1367.44+253.757+1366.42ZM261.276+1372.47C262.153+1371.85+262.609+1370.73+262.643+1369.1L262.643+1367.29C262.336+1367.48+262.025+1367.64+261.712+1367.76C261.399+1367.88+260.968+1367.99+260.422+1368.09L259.328+1368.3C258.302+1368.48+257.568+1368.7+257.123+1368.96C256.371+1369.41+255.995+1370.1+255.995+1371.03C255.995+1371.86+256.226+1372.46+256.687+1372.83C257.149+1373.2+257.71+1373.39+258.371+1373.39C259.419+1373.39+260.387+1373.08+261.276+1372.47Z" opacity="1"/>
<path opacity="1" d="M276.794+1361.41C276.338+1361.74+276.11+1362.13+276.11+1362.57C276.11+1363.13+276.349+1363.53+276.828+1363.78C277.306+1364.05+278.998+1364.5+281.904+1365.13C283.84+1365.59+285.293+1366.28+286.261+1367.2C287.218+1368.14+287.697+1369.3+287.697+1370.71C287.697+1372.55+287.011+1374.06+285.638+1375.23C284.265+1376.39+282.143+1376.98+279.272+1376.98C276.344+1376.98+274.182+1376.36+272.786+1375.12C271.39+1373.89+270.693+1372.31+270.693+1370.4L275.632+1370.4C275.734+1371.26+275.956+1371.88+276.298+1372.24C276.902+1372.89+278.018+1373.22+279.648+1373.22C280.605+1373.22+281.365+1373.08+281.929+1372.79C282.493+1372.51+282.775+1372.08+282.775+1371.51C282.775+1370.96+282.547+1370.55+282.092+1370.26C281.636+1369.98+279.944+1369.49+277.016+1368.79C274.908+1368.27+273.421+1367.61+272.555+1366.83C271.69+1366.05+271.257+1364.93+271.257+1363.48C271.257+1361.76+271.932+1360.28+273.282+1359.04C274.632+1357.81+276.532+1357.19+278.981+1357.19C281.305+1357.19+283.2+1357.65+284.664+1358.58C286.128+1359.51+286.968+1361.11+287.184+1363.39L282.314+1363.39C282.245+1362.76+282.069+1362.27+281.784+1361.9C281.248+1361.24+280.337+1360.91+279.05+1360.91C277.99+1360.91+277.238+1361.08+276.794+1361.41Z" fill="#000000"/>
<path d="M296.259+1361.41C295.803+1361.74+295.575+1362.13+295.575+1362.57C295.575+1363.13+295.815+1363.53+296.293+1363.78C296.772+1364.05+298.464+1364.5+301.369+1365.13C303.306+1365.59+304.758+1366.28+305.727+1367.2C306.684+1368.14+307.162+1369.3+307.162+1370.71C307.162+1372.55+306.476+1374.06+305.103+1375.23C303.73+1376.39+301.608+1376.98+298.737+1376.98C295.809+1376.98+293.647+1376.36+292.251+1375.12C290.856+1373.89+290.158+1372.31+290.158+1370.4L295.097+1370.4C295.199+1371.26+295.422+1371.88+295.763+1372.24C296.367+1372.89+297.484+1373.22+299.113+1373.22C300.07+1373.22+300.831+1373.08+301.395+1372.79C301.958+1372.51+302.24+1372.08+302.24+1371.51C302.24+1370.96+302.013+1370.55+301.557+1370.26C301.101+1369.98+299.409+1369.49+296.481+1368.79C294.373+1368.27+292.887+1367.61+292.021+1366.83C291.155+1366.05+290.722+1364.93+290.722+1363.48C290.722+1361.76+291.397+1360.28+292.747+1359.04C294.097+1357.81+295.997+1357.19+298.447+1357.19C300.771+1357.19+302.665+1357.65+304.129+1358.58C305.593+1359.51+306.433+1361.11+306.65+1363.39L301.779+1363.39C301.711+1362.76+301.534+1362.27+301.249+1361.9C300.714+1361.24+299.802+1360.91+298.515+1360.91C297.455+1360.91+296.703+1361.08+296.259+1361.41Z" fill="#000000" opacity="1"/>
<path d="M321.723+1377.05C318.1+1377.05+315.252+1375.88+313.178+1373.56C311.104+1371.22+310.068+1368.02+310.068+1363.95C310.068+1359.56+311.247+1356.17+313.605+1353.79C315.656+1351.71+318.265+1350.68+321.432+1350.68C325.671+1350.68+328.77+1352.07+330.729+1354.85C331.812+1356.41+332.393+1357.97+332.472+1359.55L327.209+1359.55C326.867+1358.34+326.428+1357.43+325.893+1356.81C324.936+1355.72+323.517+1355.17+321.637+1355.17C319.723+1355.17+318.214+1355.94+317.109+1357.49C316.003+1359.03+315.451+1361.21+315.451+1364.04C315.451+1366.87+316.035+1368.98+317.203+1370.39C318.37+1371.8+319.854+1372.5+321.655+1372.5C323.5+1372.5+324.907+1371.9+325.876+1370.69C326.411+1370.04+326.856+1369.06+327.209+1367.77L332.421+1367.77C331.965+1370.51+330.8+1372.74+328.926+1374.47C327.052+1376.19+324.651+1377.05+321.723+1377.05Z" opacity="1" fill="#000000"/>
<path fill="#000000" d="M347.392+1362.59C346.947+1361.72+346.104+1361.29+344.863+1361.29C343.575+1361.29+342.598+1361.72+341.932+1362.58C341.265+1363.44+340.932+1364.67+340.932+1366.26L340.932+1376.35L336.078+1376.35L336.078+1351.24L340.932+1351.24L340.932+1360.14C341.638+1359.06+342.456+1358.31+343.384+1357.88C344.313+1357.45+345.29+1357.24+346.315+1357.24C347.466+1357.24+348.511+1357.44+349.451+1357.84C350.391+1358.24+351.163+1358.85+351.767+1359.67C352.28+1360.36+352.593+1361.08+352.707+1361.81C352.821+1362.55+352.878+1363.74+352.878+1365.41L352.878+1376.35L347.905+1376.35L347.905+1365.01C347.905+1364.01+347.734+1363.2+347.392+1362.59Z" opacity="1"/>
<path opacity="1" fill="#000000" d="M364.943+1376.96C362.573+1376.96+360.483+1376.2+358.671+1374.67C356.86+1373.14+355.954+1370.66+355.954+1367.22C355.954+1363.99+356.771+1361.52+358.406+1359.8C360.041+1358.08+362.163+1357.22+364.772+1357.22C366.322+1357.22+367.717+1357.51+368.959+1358.09C370.201+1358.67+371.226+1359.59+372.035+1360.84C372.765+1361.95+373.237+1363.23+373.454+1364.69C373.579+1365.54+373.63+1366.77+373.608+1368.38L360.859+1368.38C360.927+1370.25+361.514+1371.56+362.619+1372.31C363.291+1372.78+364.1+1373.01+365.046+1373.01C366.048+1373.01+366.863+1372.73+367.489+1372.16C367.831+1371.85+368.133+1371.42+368.395+1370.88L373.368+1370.88C373.243+1371.98+372.668+1373.1+371.642+1374.24C370.047+1376.05+367.814+1376.96+364.943+1376.96ZM364.772+1361.24C363.644+1361.24+362.77+1361.59+362.149+1362.3C361.528+1363+361.138+1363.96+360.978+1365.17L368.549+1365.17C368.469+1363.88+368.079+1362.9+367.378+1362.24C366.678+1361.57+365.809+1361.24+364.772+1361.24Z"/>
<path opacity="1" fill="#000000" d="M384.767+1361.39C383.127+1361.39+382.004+1362.21+381.401+1363.84C381.082+1364.7+380.922+1365.85+380.922+1367.29C380.922+1368.65+381.082+1369.75+381.401+1370.59C381.982+1372.14+383.075+1372.91+384.682+1372.91C385.821+1372.91+386.63+1372.6+387.109+1371.99C387.587+1371.37+387.878+1370.57+387.98+1369.59L392.953+1369.59C392.839+1371.08+392.304+1372.48+391.347+1373.8C389.82+1375.93+387.559+1376.99+384.562+1376.99C381.566+1376.99+379.361+1376.11+377.948+1374.33C376.536+1372.55+375.829+1370.24+375.829+1367.41C375.829+1364.21+376.61+1361.72+378.171+1359.94C379.731+1358.16+381.885+1357.27+384.631+1357.27C386.966+1357.27+388.877+1357.8+390.364+1358.85C391.851+1359.89+392.731+1361.74+393.005+1364.4L388.014+1364.4C387.923+1363.7+387.69+1363.08+387.314+1362.52C386.767+1361.77+385.918+1361.39+384.767+1361.39Z"/>
<path d="M401.088+1364.81L407.155+1357.8L413.188+1357.8L406.676+1364.93L413.444+1376.35L407.565+1376.35L403.105+1368.38L401.088+1370.48L401.088+1376.35L396.303+1376.35L396.303+1351.24L401.088+1351.24L401.088+1364.81Z" fill="#000000" opacity="1"/>
<path d="M414.35+1364.28L424.159+1364.28L424.159+1368.89L414.35+1368.89L414.35+1364.28Z" opacity="1" fill="#000000"/>
<path d="M441.027+1351.15L449.948+1376.35L444.24+1376.35L442.616+1371.17L433.337+1371.17L431.593+1376.35L426.091+1376.35L435.08+1351.15L441.027+1351.15ZM438.002+1356.91L434.755+1366.83L441.147+1366.83L438.002+1356.91Z" opacity="1" fill="#000000"/>
<path opacity="1" fill="#000000" d="M459.006+1375.76C458.47+1375.35+457.946+1374.76+457.433+1373.97L457.433+1383.68L452.614+1383.68L452.614+1357.72L457.28+1357.72L457.28+1360.47C457.804+1359.66+458.362+1359.02+458.954+1358.55C460.037+1357.72+461.324+1357.31+462.817+1357.31C464.993+1357.31+466.836+1358.11+468.345+1359.72C469.855+1361.32+470.61+1363.68+470.61+1366.79C470.61+1370.07+469.872+1372.57+468.396+1374.29C466.921+1376.01+465.021+1376.87+462.697+1376.87C461.216+1376.87+459.985+1376.5+459.006+1375.76ZM461.415+1372.79C462.771+1372.79+463.805+1372.27+464.517+1371.22C465.229+1370.17+465.585+1368.77+465.585+1367.03C465.585+1365.6+465.258+1364.33+464.603+1363.22C463.947+1362.11+462.885+1361.56+461.415+1361.56C459.649+1361.56+458.436+1362.4+457.775+1364.07C457.433+1364.96+457.262+1366.09+457.262+1367.46C457.262+1369.62+457.838+1371.14+458.988+1372.02C459.672+1372.53+460.481+1372.79+461.415+1372.79Z"/>
<path opacity="1" d="M480.385+1375.76C479.849+1375.35+479.325+1374.76+478.813+1373.97L478.813+1383.68L473.993+1383.68L473.993+1357.72L478.659+1357.72L478.659+1360.47C479.183+1359.66+479.741+1359.02+480.334+1358.55C481.416+1357.72+482.704+1357.31+484.196+1357.31C486.372+1357.31+488.215+1358.11+489.725+1359.72C491.234+1361.32+491.989+1363.68+491.989+1366.79C491.989+1370.07+491.251+1372.57+489.776+1374.29C488.3+1376.01+486.401+1376.87+484.076+1376.87C482.595+1376.87+481.365+1376.5+480.385+1375.76ZM482.795+1372.79C484.15+1372.79+485.184+1372.27+485.896+1371.22C486.609+1370.17+486.965+1368.77+486.965+1367.03C486.965+1365.6+486.637+1364.33+485.982+1363.22C485.327+1362.11+484.264+1361.56+482.795+1361.56C481.029+1361.56+479.815+1362.4+479.155+1364.07C478.813+1364.96+478.642+1366.09+478.642+1367.46C478.642+1369.62+479.217+1371.14+480.368+1372.02C481.051+1372.53+481.86+1372.79+482.795+1372.79Z" fill="#000000"/>
<path d="M516.974+1367.85L516.974+1357.72L521.913+1357.72L521.913+1376.35L517.179+1376.35L517.179+1373.71C517.134+1373.77+517.02+1373.94+516.838+1374.23C516.655+1374.51+516.439+1374.76+516.188+1374.98C515.425+1375.66+514.687+1376.13+513.975+1376.38C513.263+1376.63+512.428+1376.76+511.471+1376.76C508.714+1376.76+506.857+1375.76+505.9+1373.78C505.365+1372.69+505.097+1371.08+505.097+1368.95L505.097+1357.72L510.087+1357.72L510.087+1368.95C510.087+1370+510.212+1370.8+510.463+1371.34C510.907+1372.28+511.779+1372.76+513.078+1372.76C514.741+1372.76+515.881+1372.08+516.496+1370.74C516.815+1370.01+516.974+1369.05+516.974+1367.85ZM514.684+1350.83L519.145+1350.83L519.145+1354.88L514.684+1354.88L514.684+1350.83ZM507.848+1350.83L512.309+1350.83L512.309+1354.88L507.848+1354.88L507.848+1350.83Z" opacity="1" fill="#000000"/>
<path opacity="1" fill="#000000" d="M533.022+1375.92C532.463+1375.55+531.86+1374.92+531.21+1374L531.21+1376.35L526.442+1376.35L526.442+1351.19L531.296+1351.19L531.296+1360.14C531.911+1359.28+532.589+1358.62+533.329+1358.16C534.207+1357.59+535.323+1357.31+536.679+1357.31C539.128+1357.31+541.045+1358.19+542.43+1359.96C543.814+1361.72+544.506+1364+544.506+1366.79C544.506+1369.69+543.822+1372.08+542.455+1373.99C541.088+1375.89+539.18+1376.84+536.73+1376.84C535.192+1376.84+533.956+1376.53+533.022+1375.92ZM535.295+1361.56C533.529+1361.56+532.315+1362.37+531.655+1363.97C531.313+1364.83+531.142+1365.93+531.142+1367.29C531.142+1368.88+531.495+1370.2+532.201+1371.25C532.908+1372.3+533.984+1372.82+535.431+1372.82C536.685+1372.82+537.659+1372.32+538.354+1371.3C539.049+1370.29+539.396+1368.96+539.396+1367.3C539.396+1365.98+539.225+1364.89+538.884+1364.02C538.234+1362.38+537.038+1361.56+535.295+1361.56Z"/>
<path d="M555.512+1376.96C553.142+1376.96+551.051+1376.2+549.24+1374.67C547.428+1373.14+546.523+1370.66+546.523+1367.22C546.523+1363.99+547.34+1361.52+548.975+1359.8C550.61+1358.08+552.732+1357.22+555.341+1357.22C556.891+1357.22+558.286+1357.51+559.528+1358.09C560.77+1358.67+561.795+1359.59+562.604+1360.84C563.333+1361.95+563.806+1363.23+564.023+1364.69C564.148+1365.54+564.199+1366.77+564.176+1368.38L551.427+1368.38C551.496+1370.25+552.083+1371.56+553.188+1372.31C553.86+1372.78+554.669+1373.01+555.614+1373.01C556.617+1373.01+557.432+1372.73+558.058+1372.16C558.4+1371.85+558.702+1371.42+558.964+1370.88L563.937+1370.88C563.812+1371.98+563.237+1373.1+562.211+1374.24C560.616+1376.05+558.383+1376.96+555.512+1376.96ZM555.341+1361.24C554.213+1361.24+553.339+1361.59+552.718+1362.3C552.097+1363+551.707+1363.96+551.547+1365.17L559.118+1365.17C559.038+1363.88+558.648+1362.9+557.947+1362.24C557.247+1361.57+556.378+1361.24+555.341+1361.24Z" opacity="1" fill="#000000"/>
<path d="M577.404+1362.23C577.165+1362.22+576.971+1362.21+576.823+1362.21C574.863+1362.21+573.547+1362.85+572.875+1364.13C572.499+1364.84+572.311+1365.95+572.311+1367.44L572.311+1376.35L567.406+1376.35L567.406+1357.72L572.055+1357.72L572.055+1360.96C572.807+1359.72+573.462+1358.87+574.02+1358.42C574.932+1357.65+576.117+1357.27+577.575+1357.27C577.666+1357.27+577.743+1357.28+577.806+1357.28C577.868+1357.29+578.008+1357.3+578.224+1357.31L578.224+1362.3C577.917+1362.26+577.643+1362.24+577.404+1362.23Z" opacity="1" fill="#000000"/>
<path d="M587.333+1375.76C586.798+1375.35+586.274+1374.76+585.761+1373.97L585.761+1383.68L580.942+1383.68L580.942+1357.72L585.607+1357.72L585.607+1360.47C586.131+1359.66+586.69+1359.02+587.282+1358.55C588.364+1357.72+589.652+1357.31+591.144+1357.31C593.32+1357.31+595.163+1358.11+596.673+1359.72C598.182+1361.32+598.937+1363.68+598.937+1366.79C598.937+1370.07+598.2+1372.57+596.724+1374.29C595.249+1376.01+593.349+1376.87+591.025+1376.87C589.544+1376.87+588.313+1376.5+587.333+1375.76ZM589.743+1372.79C591.099+1372.79+592.133+1372.27+592.845+1371.22C593.557+1370.17+593.913+1368.77+593.913+1367.03C593.913+1365.6+593.585+1364.33+592.93+1363.22C592.275+1362.11+591.213+1361.56+589.743+1361.56C587.977+1361.56+586.764+1362.4+586.103+1364.07C585.761+1364.96+585.59+1366.09+585.59+1367.46C585.59+1369.62+586.165+1371.14+587.316+1372.02C588+1372.53+588.809+1372.79+589.743+1372.79Z" fill="#000000" opacity="1"/>
<path opacity="1" d="M612.404+1362.23C612.165+1362.22+611.971+1362.21+611.823+1362.21C609.863+1362.21+608.547+1362.85+607.875+1364.13C607.499+1364.84+607.311+1365.95+607.311+1367.44L607.311+1376.35L602.406+1376.35L602.406+1357.72L607.055+1357.72L607.055+1360.96C607.807+1359.72+608.462+1358.87+609.02+1358.42C609.932+1357.65+611.117+1357.27+612.575+1357.27C612.666+1357.27+612.743+1357.28+612.806+1357.28C612.868+1357.29+613.008+1357.3+613.224+1357.31L613.224+1362.3C612.917+1362.26+612.643+1362.24+612.404+1362.23Z" fill="#000000"/>
<path opacity="1" fill="#000000" d="M627.819+1367.85L627.819+1357.72L632.758+1357.72L632.758+1376.35L628.024+1376.35L628.024+1373.71C627.979+1373.77+627.865+1373.94+627.682+1374.23C627.5+1374.51+627.284+1374.76+627.033+1374.98C626.27+1375.66+625.532+1376.13+624.82+1376.38C624.108+1376.63+623.273+1376.76+622.316+1376.76C619.559+1376.76+617.702+1375.76+616.745+1373.78C616.209+1372.69+615.942+1371.08+615.942+1368.95L615.942+1357.72L620.932+1357.72L620.932+1368.95C620.932+1370+621.057+1370.8+621.308+1371.34C621.752+1372.28+622.624+1372.76+623.923+1372.76C625.586+1372.76+626.725+1372.08+627.341+1370.74C627.66+1370.01+627.819+1369.05+627.819+1367.85ZM625.529+1350.83L629.989+1350.83L629.989+1354.88L625.529+1354.88L625.529+1350.83ZM618.693+1350.83L623.154+1350.83L623.154+1354.88L618.693+1354.88L618.693+1350.83Z"/>
<path fill="#000000" d="M643.114+1357.89L646.31+1357.89L646.31+1361.32L643.114+1361.32L643.114+1376.35L638.261+1376.35L638.261+1361.32L635.544+1361.32L635.544+1357.89L638.21+1357.89L638.21+1356.69C638.21+1354.7+638.546+1353.33+639.218+1352.57C639.924+1351.46+641.628+1350.9+644.328+1350.9C644.635+1350.9+644.915+1350.91+645.165+1350.92C645.416+1350.94+645.758+1350.97+646.191+1351L646.191+1354.97C645.917+1354.93+645.459+1354.91+644.815+1354.89C644.171+1354.87+643.727+1355.01+643.482+1355.32C643.237+1355.62+643.114+1355.95+643.114+1356.32L643.114+1357.89Z" opacity="1"/>
<path d="M656.633+1376.96C654.263+1376.96+652.172+1376.2+650.361+1374.67C648.549+1373.14+647.643+1370.66+647.643+1367.22C647.643+1363.99+648.461+1361.52+650.096+1359.8C651.731+1358.08+653.853+1357.22+656.462+1357.22C658.011+1357.22+659.407+1357.51+660.649+1358.09C661.891+1358.67+662.916+1359.59+663.725+1360.84C664.454+1361.95+664.927+1363.23+665.143+1364.69C665.269+1365.54+665.32+1366.77+665.297+1368.38L652.548+1368.38C652.616+1370.25+653.203+1371.56+654.308+1372.31C654.981+1372.78+655.789+1373.01+656.735+1373.01C657.738+1373.01+658.552+1372.73+659.179+1372.16C659.521+1371.85+659.823+1371.42+660.085+1370.88L665.058+1370.88C664.933+1371.98+664.357+1373.1+663.332+1374.24C661.737+1376.05+659.504+1376.96+656.633+1376.96ZM656.462+1361.24C655.334+1361.24+654.459+1361.59+653.838+1362.3C653.217+1363+652.827+1363.96+652.668+1365.17L660.238+1365.17C660.159+1363.88+659.769+1362.9+659.068+1362.24C658.367+1361.57+657.498+1361.24+656.462+1361.24Z" opacity="1" fill="#000000"/>
<path fill="#000000" d="M683.634+1358.78C684.854+1359.79+685.463+1361.47+685.463+1363.8L685.463+1376.35L680.473+1376.35L680.473+1365.01C680.473+1364.03+680.342+1363.28+680.08+1362.76C679.601+1361.8+678.69+1361.32+677.345+1361.32C675.693+1361.32+674.56+1362.02+673.945+1363.43C673.626+1364.17+673.466+1365.11+673.466+1366.26L673.466+1376.35L668.613+1376.35L668.613+1357.75L673.312+1357.75L673.312+1360.47C673.939+1359.51+674.531+1358.82+675.09+1358.4C676.092+1357.65+677.363+1357.27+678.901+1357.27C680.826+1357.27+682.404+1357.77+683.634+1358.78Z" opacity="1"/>
<path opacity="1" fill="#000000" d="M689.872+1371.25L695.051+1371.25L695.051+1376.35L689.872+1376.35L689.872+1371.25Z"/>
<g opacity="1">
<g opacity="1" filter="url(#D8E3EAAD-1217-4778-89FB-05DAF0E79DF3)">
<g opacity="1">
<path opacity="1" fill="#ffffff" d="M463.73+91.1198L616.27+91.1198C650.086+91.1198+677.5+118.534+677.5+152.35L677.5+304.889C677.5+338.706+650.086+366.12+616.27+366.12L463.73+366.12C429.914+366.12+402.5+338.706+402.5+304.889L402.5+152.35C402.5+118.534+429.914+91.1198+463.73+91.1198Z"/>
<path opacity="1" d="M463.73+91.1198L616.27+91.1198C650.086+91.1198+677.5+118.534+677.5+152.35L677.5+304.889C677.5+338.706+650.086+366.12+616.27+366.12L463.73+366.12C429.914+366.12+402.5+338.706+402.5+304.889L402.5+152.35C402.5+118.534+429.914+91.1198+463.73+91.1198Z" fill="#ffffff"/>
</g>
<path opacity="1" d="M540.194+142.999L540.437+143.067L615.526+165.655C617.833+166.348+619.432+168.437+619.519+170.835L619.523+171.041L619.523+174.211L594.917+180.494C594.732+180.542+594.559+180.628+594.41+180.747L594.303+180.842L539.463+235.293C538.969+235.784+538.188+235.811+537.662+235.375L537.567+235.288L506.88+204.531C506.879+204.531+506.879+204.53+506.878+204.529C506.384+204.036+505.602+204.008+505.075+204.444L504.979+204.531L492.317+217.222C491.825+217.715+491.796+218.496+492.231+219.023L492.317+219.119L537.562+264.467C538.058+264.962+538.841+264.991+539.368+264.555L539.463+264.467L619.523+184.223L619.523+253.863C619.523+262.571+616.682+271.444+611.063+280.322C609.026+279.615+606.906+279.085+604.723+278.749L604.723+278.749L605.115+270.695L605.433+270.713L605.602+270.719C607.56+270.738+609.073+269.163+609.163+267.305C609.261+265.313+607.749+263.609+605.786+263.499L605.786+263.499L598.043+263.066L597.875+263.06L597.709+263.063C595.894+263.132+594.404+264.596+594.312+266.474C594.215+268.466+595.727+270.17+597.69+270.28L597.69+270.28L598.007+270.297L597.613+278.356C593.243+278.538+589.071+279.49+585.23+281.082L585.23+281.082L581.674+274.025L581.957+273.88L582.109+273.797C583.745+272.851+584.37+270.753+583.499+269.025C582.602+267.245+580.457+266.532+578.709+267.433L578.709+267.433L571.811+270.987L571.659+271.07C570.023+272.016+569.398+274.114+570.269+275.842C571.129+277.55+573.242+278.37+575.059+277.434L575.059+277.434L575.342+277.288L578.947+284.443C575.324+286.866+572.157+289.921+569.605+293.453L569.605+293.453L562.671+289.438L562.83+289.161L562.915+289.005C563.777+287.323+563.178+285.242+561.528+284.286C559.826+283.301+557.649+283.886+556.666+285.593L556.666+285.593L552.789+292.327L552.704+292.483C551.843+294.165+552.441+296.246+554.092+297.201C555.794+298.188+557.97+297.602+558.953+295.895L558.953+295.895L559.112+295.619L566.01+299.612C564.55+302.793+563.531+306.22+563.034+309.814L563.034+309.814L554.857+309.555L554.869+309.236L554.872+309.068C554.856+307.173+553.337+305.616+551.406+305.555C549.417+305.492+547.746+307.038+547.67+309.008L547.67+309.008L547.374+316.78L547.371+316.948C547.387+318.842+548.906+320.399+550.837+320.46C552.755+320.522+554.495+319.046+554.573+317.008L554.573+317.008L554.585+316.689L562.743+316.947C562.845+318.79+563.083+320.596+563.447+322.356C551.196+329.735+541.674+334.04+541.117+334.29C540.388+334.617+539.607+334.781+538.826+334.781C538.044+334.781+537.263+334.617+536.534+334.29C535.746+333.936+517.014+325.466+497.992+311.659C486.668+303.44+477.605+295.022+471.054+286.64C462.608+275.832+458.262+264.975+458.13+254.361L458.127+253.863L458.127+171.041C458.127+168.626+459.662+166.49+461.927+165.717L462.123+165.655L537.214+143.067C538.185+142.774+539.214+142.752+540.194+142.999Z" fill="#ffffff"/>
</g>
<g opacity="1">
<g opacity="1">
<path opacity="1" d="M470.664+103.62L609.336+103.62C640.078+103.62+665+128.541+665+159.284L665+297.956C665+328.698+640.078+353.62+609.336+353.62L470.664+353.62C439.922+353.62+415+328.698+415+297.956L415+159.284C415+128.541+439.922+103.62+470.664+103.62Z" fill="#065fc4"/>
<path d="M470.664+103.62L609.336+103.62C640.078+103.62+665+128.541+665+159.284L665+297.956C665+328.698+640.078+353.62+609.336+353.62L470.664+353.62C439.922+353.62+415+328.698+415+297.956L415+159.284C415+128.541+439.922+103.62+470.664+103.62Z" opacity="1" fill="url(#LinearGradient)"/>
</g>
<path fill="#ffffff" d="M540.176+150.783L540.398+150.844L608.66+171.379C610.757+172.009+612.211+173.908+612.29+176.088L612.293+176.275L612.293+179.157L589.925+184.869C589.756+184.912+589.599+184.991+589.464+185.099L589.367+185.186L539.512+234.686C539.063+235.132+538.353+235.157+537.875+234.761L537.788+234.682L509.891+206.721C509.89+206.721+509.89+206.72+509.889+206.719C509.44+206.271+508.729+206.246+508.25+206.642L508.163+206.721L496.652+218.258C496.205+218.707+496.178+219.416+496.573+219.896L496.652+219.983L537.784+261.208C538.235+261.659+538.946+261.684+539.425+261.288L539.512+261.208L612.293+188.259L612.293+251.569C612.293+259.484+609.711+267.551+604.603+275.622C602.751+274.979+600.824+274.497+598.839+274.192L598.839+274.192L599.196+266.87L599.485+266.886L599.638+266.891C601.418+266.909+602.793+265.478+602.876+263.788C602.964+261.977+601.59+260.428+599.805+260.328L599.805+260.328L592.766+259.934L592.614+259.929L592.463+259.932C590.813+259.994+589.458+261.325+589.375+263.032C589.286+264.843+590.661+266.393+592.445+266.492L592.445+266.492L592.734+266.508L592.376+273.835C588.403+274+584.61+274.866+581.118+276.313L581.118+276.313L577.885+269.898L578.143+269.765L578.281+269.69C579.768+268.83+580.336+266.923+579.544+265.352C578.729+263.734+576.779+263.086+575.19+263.905L575.19+263.905L568.919+267.136L568.781+267.211C567.293+268.071+566.726+269.978+567.517+271.549C568.299+273.102+570.22+273.847+571.872+272.996L571.872+272.996L572.129+272.864L575.407+279.368C572.113+281.571+569.234+284.349+566.914+287.559L566.914+287.559L560.61+283.909L560.755+283.658L560.832+283.515C561.615+281.987+561.071+280.095+559.571+279.226C558.023+278.33+556.044+278.861+555.151+280.413L555.151+280.413L551.626+286.535L551.549+286.677C550.766+288.206+551.31+290.098+552.811+290.967C554.358+291.863+556.337+291.331+557.23+289.779L557.23+289.779L557.375+289.528L563.646+293.158C562.318+296.05+561.392+299.165+560.94+302.432L560.94+302.432L553.507+302.197L553.518+301.907L553.52+301.754C553.505+300.032+552.125+298.616+550.369+298.561C548.561+298.503+547.041+299.909+546.973+301.7L546.973+301.7L546.703+308.765L546.701+308.918C546.716+310.64+548.096+312.056+549.852+312.111C551.595+312.167+553.177+310.825+553.248+308.972L553.248+308.972L553.259+308.682L560.675+308.917C560.768+310.592+560.984+312.235+561.316+313.835C550.178+320.543+541.522+324.456+541.016+324.683C540.353+324.981+539.643+325.13+538.932+325.13C538.222+325.13+537.512+324.981+536.849+324.683C536.133+324.362+519.104+316.662+501.811+304.11C491.517+296.638+483.277+288.986+477.322+281.365C469.644+271.54+465.692+261.67+465.573+252.021L465.57+251.569L465.57+176.275C465.57+174.08+466.966+172.138+469.025+171.436L469.203+171.379L537.467+150.844C538.35+150.579+539.285+150.558+540.176+150.783Z" opacity="1"/>
</g>
</g>
<g opacity="1" id="qr">
</g>
</g>
</svg>