<svg height="100%" xml:space="preserve" viewBox="0 0 1080 1600" xmlns="http://www.w3.org/2000/svg" version="1.1" style="fill-rule:nonzero;clip-rule:evenodd;stroke-linecap:round;stroke-linejoin:round;" xmlns:vectornator="http://vectornator.io" xmlns:xlink="http://www.w3.org/1999/xlink">
<defs>
<filter width="845" height="845" filterUnits="userSpaceOnUse" id="4955A6D9-CB82-4564-9133-3E8855D3FCDB" x="117.5" y="0" color-interpolation-filters="sRGB">
<feDropShadow flood-color="#000000" dy="10" stdDeviation="3" dx="-3.6732e-05" height="845" width="845"/>
</filter>
<linearGradient y2="0" y1="280.8" gradientUnits="userSpaceOnUse" x2="145.696" gradientTransform="matrix(0.712251 0 0 0.712251 415 103.62)" id="LinearGradient" x1="145.696">
<stop stop-opacity="0" offset="0" stop-color="#000000"/>
<stop offset="1" stop-color="#000000"/>
</linearGradient>
</defs>
<g>
<path opacity="1" fill="#065fc5" d="M135.677+50L944.323+50C980.596+50+1010+79.0324+1010+114.846L1010+1485.15C1010+1520.97+980.596+1550+944.323+1550L135.677+1550C99.4045+1550+70+1520.97+70+1485.15L70+114.846C70+79.0324+99.4045+50+135.677+50Z"/>
<path d="M184.806+432.121L172.647+396.134L180.68+396.134L188.492+423.454L196.378+396.134L204.19+396.134L191.91+432.121L184.806+432.121Z" opacity="1" fill="#ffffff"/>
<path opacity="1" fill="#ffffff" d="M210.074+417.936C211.458+417.139+213.492+416.569+216.178+416.227L218.546+415.934C219.832+415.771+220.751+415.568+221.305+415.324C222.298+414.901+222.794+414.242+222.794+413.346C222.794+412.256+222.416+411.503+221.659+411.088C220.902+410.673+219.791+410.465+218.326+410.465C216.682+410.465+215.519+410.872+214.835+411.686C214.347+412.288+214.021+413.102+213.858+414.128L207.145+414.128C207.291+411.8+207.942+409.888+209.098+408.39C210.937+406.047+214.094+404.875+218.57+404.875C221.484+404.875+224.072+405.452+226.334+406.608C228.596+407.764+229.728+409.945+229.728+413.151L229.728+425.358C229.728+426.204+229.744+427.23+229.776+428.434C229.825+429.346+229.964+429.964+230.191+430.29C230.419+430.615+230.761+430.884+231.217+431.095L231.217+432.121L223.648+432.121C223.437+431.584+223.29+431.079+223.209+430.607C223.128+430.135+223.063+429.598+223.014+428.996C222.053+430.037+220.947+430.924+219.693+431.657C218.196+432.52+216.503+432.951+214.615+432.951C212.206+432.951+210.217+432.263+208.646+430.888C207.075+429.513+206.29+427.563+206.29+425.041C206.29+421.769+207.551+419.401+210.074+417.936ZM220.816+426.579C222.07+425.7+222.721+424.097+222.77+421.769L222.77+419.181C222.33+419.458+221.887+419.682+221.439+419.853C220.991+420.024+220.377+420.182+219.596+420.329L218.033+420.622C216.568+420.882+215.519+421.2+214.884+421.574C213.81+422.209+213.272+423.193+213.272+424.528C213.272+425.716+213.602+426.575+214.261+427.104C214.92+427.633+215.722+427.897+216.666+427.897C218.163+427.897+219.547+427.458+220.816+426.579Z"/>
<path d="M247.159+410.758C244.815+410.758+243.212+411.922+242.35+414.25C241.894+415.487+241.666+417.131+241.666+419.181C241.666+421.134+241.894+422.705+242.35+423.893C243.18+426.107+244.742+427.214+247.037+427.214C248.665+427.214+249.82+426.774+250.504+425.895C251.188+425.016+251.603+423.877+251.749+422.477L258.854+422.477C258.691+424.593+257.926+426.595+256.559+428.483C254.378+431.527+251.147+433.049+246.866+433.049C242.586+433.049+239.436+431.779+237.418+429.24C235.4+426.701+234.391+423.405+234.391+419.352C234.391+414.779+235.506+411.222+237.735+408.683C239.965+406.144+243.041+404.875+246.964+404.875C250.3+404.875+253.031+405.623+255.155+407.121C257.279+408.618+258.536+411.263+258.927+415.055L251.798+415.055C251.668+414.062+251.334+413.167+250.797+412.37C250.016+411.296+248.803+410.758+247.159+410.758Z" opacity="1" fill="#ffffff"/>
<path opacity="1" fill="#ffffff" d="M274.967+410.758C272.623+410.758+271.02+411.922+270.157+414.25C269.701+415.487+269.474+417.131+269.474+419.181C269.474+421.134+269.701+422.705+270.157+423.893C270.987+426.107+272.55+427.214+274.845+427.214C276.472+427.214+277.628+426.774+278.312+425.895C278.995+425.016+279.41+423.877+279.557+422.477L286.661+422.477C286.498+424.593+285.733+426.595+284.366+428.483C282.185+431.527+278.954+433.049+274.674+433.049C270.393+433.049+267.244+431.779+265.226+429.24C263.207+426.701+262.198+423.405+262.198+419.352C262.198+414.779+263.313+411.222+265.543+408.683C267.773+406.144+270.849+404.875+274.771+404.875C278.108+404.875+280.838+405.623+282.962+407.121C285.086+408.618+286.344+411.263+286.734+415.055L279.605+415.055C279.475+414.062+279.142+413.167+278.604+412.37C277.823+411.296+276.611+410.758+274.967+410.758Z"/>
<path opacity="1" d="M298.673+405.509L298.673+432.121L291.617+432.121L291.617+405.509L298.673+405.509ZM298.673+395.915L298.673+402.336L291.617+402.336L291.617+395.915L298.673+395.915Z" fill="#ffffff"/>
<path opacity="1" fill="#ffffff" d="M326.92+407.023C328.661+408.472+329.532+410.864+329.532+414.201L329.532+432.121L322.403+432.121L322.403+415.934C322.403+414.535+322.216+413.46+321.842+412.712C321.158+411.344+319.856+410.661+317.936+410.661C315.576+410.661+313.956+411.662+313.077+413.664C312.621+414.722+312.394+416.073+312.394+417.716L312.394+432.121L305.46+432.121L305.46+405.558L312.174+405.558L312.174+409.44C313.069+408.073+313.915+407.088+314.713+406.486C316.145+405.412+317.96+404.875+320.157+404.875C322.908+404.875+325.162+405.591+326.92+407.023Z"/>
<path fill="#ffffff" d="M337.931+417.936C339.314+417.139+341.349+416.569+344.034+416.227L346.402+415.934C347.688+415.771+348.608+415.568+349.161+415.324C350.154+414.901+350.65+414.242+350.65+413.346C350.65+412.256+350.272+411.503+349.515+411.088C348.758+410.673+347.647+410.465+346.183+410.465C344.539+410.465+343.375+410.872+342.691+411.686C342.203+412.288+341.878+413.102+341.715+414.128L335.001+414.128C335.147+411.8+335.799+409.888+336.954+408.39C338.793+406.047+341.951+404.875+346.427+404.875C349.34+404.875+351.928+405.452+354.19+406.608C356.453+407.764+357.584+409.945+357.584+413.151L357.584+425.358C357.584+426.204+357.6+427.23+357.633+428.434C357.682+429.346+357.82+429.964+358.048+430.29C358.276+430.615+358.618+430.884+359.073+431.095L359.073+432.121L351.505+432.121C351.293+431.584+351.147+431.079+351.065+430.607C350.984+430.135+350.919+429.598+350.87+428.996C349.91+430.037+348.803+430.924+347.55+431.657C346.052+432.52+344.36+432.951+342.472+432.951C340.063+432.951+338.073+432.263+336.502+430.888C334.932+429.513+334.146+427.563+334.146+425.041C334.146+421.769+335.408+419.401+337.931+417.936ZM348.673+426.579C349.926+425.7+350.577+424.097+350.626+421.769L350.626+419.181C350.187+419.458+349.743+419.682+349.295+419.853C348.848+420.024+348.233+420.182+347.452+420.329L345.89+420.622C344.425+420.882+343.375+421.2+342.74+421.574C341.666+422.209+341.129+423.193+341.129+424.528C341.129+425.716+341.458+426.575+342.118+427.104C342.777+427.633+343.578+427.897+344.522+427.897C346.02+427.897+347.403+427.458+348.673+426.579Z" opacity="1"/>
<path opacity="1" fill="#ffffff" d="M372.037+426.799C372.314+427.075+373.16+427.214+374.576+427.214C374.788+427.214+375.012+427.209+375.248+427.201C375.484+427.193+375.715+427.181+375.943+427.165L375.943+432.365L372.647+432.487C369.36+432.601+367.114+432.031+365.909+430.778C365.128+429.98+364.737+428.752+364.737+427.091L364.737+410.71L361.026+410.71L361.026+405.754L364.737+405.754L364.737+398.332L371.622+398.332L371.622+405.754L375.943+405.754L375.943+410.71L371.622+410.71L371.622+424.772C371.622+425.863+371.76+426.538+372.037+426.799Z"/>
<path fill="#ffffff" d="M387.564+405.509L387.564+432.121L380.509+432.121L380.509+405.509L387.564+405.509ZM387.564+395.915L387.564+402.336L380.509+402.336L380.509+395.915L387.564+395.915Z" opacity="1"/>
<path d="M416.495+408.879C418.741+411.694+419.864+415.023+419.864+418.864C419.864+422.77+418.741+426.111+416.495+428.886C414.249+431.661+410.839+433.049+406.266+433.049C401.692+433.049+398.282+431.661+396.036+428.886C393.79+426.111+392.667+422.77+392.667+418.864C392.667+415.023+393.79+411.694+396.036+408.879C398.282+406.063+401.692+404.655+406.266+404.655C410.839+404.655+414.249+406.063+416.495+408.879ZM410.929+412.687C409.838+411.255+408.276+410.539+406.241+410.539C404.207+410.539+402.64+411.259+401.542+412.699C400.443+414.14+399.894+416.195+399.894+418.864C399.894+421.533+400.443+423.592+401.542+425.041C402.64+426.489+404.207+427.214+406.241+427.214C408.276+427.214+409.838+426.489+410.929+425.041C412.019+423.592+412.564+421.533+412.564+418.864C412.564+416.195+412.019+414.136+410.929+412.687Z" opacity="1" fill="#ffffff"/>
<path fill="#ffffff" d="M446.354+407.023C448.095+408.472+448.966+410.864+448.966+414.201L448.966+432.121L441.837+432.121L441.837+415.934C441.837+414.535+441.65+413.46+441.275+412.712C440.592+411.344+439.29+410.661+437.369+410.661C435.009+410.661+433.39+411.662+432.511+413.664C432.055+414.722+431.827+416.073+431.827+417.716L431.827+432.121L424.894+432.121L424.894+405.558L431.607+405.558L431.607+409.44C432.503+408.073+433.349+407.088+434.146+406.486C435.579+405.412+437.394+404.875+439.591+404.875C442.341+404.875+444.596+405.591+446.354+407.023Z" opacity="1"/>
<path d="M480.533+410.758C478.189+410.758+476.586+411.922+475.724+414.25C475.268+415.487+475.04+417.131+475.04+419.181C475.04+421.134+475.268+422.705+475.724+423.893C476.554+426.107+478.116+427.214+480.411+427.214C482.039+427.214+483.194+426.774+483.878+425.895C484.562+425.016+484.977+423.877+485.123+422.477L492.228+422.477C492.065+424.593+491.3+426.595+489.933+428.483C487.752+431.527+484.521+433.049+480.24+433.049C475.96+433.049+472.81+431.779+470.792+429.24C468.774+426.701+467.765+423.405+467.765+419.352C467.765+414.779+468.88+411.222+471.109+408.683C473.339+406.144+476.415+404.875+480.338+404.875C483.674+404.875+486.405+405.623+488.529+407.121C490.653+408.618+491.91+411.263+492.301+415.055L485.172+415.055C485.042+414.062+484.708+413.167+484.171+412.37C483.39+411.296+482.177+410.758+480.533+410.758Z" opacity="1" fill="#ffffff"/>
<path fill="#ffffff" d="M507.828+433C504.443+433+501.456+431.909+498.868+429.728C496.28+427.547+494.986+423.999+494.986+419.084C494.986+414.478+496.154+410.946+498.49+408.488C500.825+406.03+503.857+404.801+507.584+404.801C509.798+404.801+511.791+405.216+513.565+406.047C515.34+406.877+516.804+408.187+517.96+409.977C519.002+411.556+519.677+413.387+519.986+415.47C520.165+416.691+520.239+418.449+520.206+420.744L501.993+420.744C502.091+423.413+502.929+425.285+504.508+426.359C505.468+427.026+506.624+427.36+507.975+427.36C509.407+427.36+510.571+426.953+511.466+426.139C511.954+425.7+512.385+425.09+512.76+424.308L519.864+424.308C519.685+425.887+518.863+427.49+517.398+429.118C515.12+431.706+511.93+433+507.828+433ZM507.584+410.539C505.973+410.539+504.723+411.043+503.836+412.052C502.949+413.062+502.392+414.429+502.164+416.154L512.979+416.154C512.866+414.315+512.308+412.919+511.307+411.967C510.306+411.015+509.065+410.539+507.584+410.539Z" opacity="1"/>
<path fill="#ffffff" opacity="1" d="M539.103+411.955C538.761+411.938+538.484+411.93+538.272+411.93C535.473+411.93+533.593+412.842+532.633+414.665C532.096+415.69+531.827+417.269+531.827+419.401L531.827+432.121L524.82+432.121L524.82+405.509L531.461+405.509L531.461+410.148C532.535+408.374+533.471+407.161+534.269+406.51C535.571+405.42+537.263+404.875+539.347+404.875C539.477+404.875+539.587+404.879+539.676+404.887C539.766+404.895+539.965+404.907+540.274+404.924L540.274+412.052C539.835+412.004+539.444+411.971+539.103+411.955Z"/>
<path fill="#ffffff" d="M552.628+426.799C552.905+427.075+553.751+427.214+555.167+427.214C555.379+427.214+555.602+427.209+555.838+427.201C556.074+427.193+556.306+427.181+556.534+427.165L556.534+432.365L553.238+432.487C549.951+432.601+547.704+432.031+546.5+430.778C545.719+429.98+545.328+428.752+545.328+427.091L545.328+410.71L541.617+410.71L541.617+405.754L545.328+405.754L545.328+398.332L552.213+398.332L552.213+405.754L556.534+405.754L556.534+410.71L552.213+410.71L552.213+424.772C552.213+425.863+552.351+426.538+552.628+426.799Z" opacity="1"/>
<path d="M568.155+405.509L568.155+432.121L561.1+432.121L561.1+405.509L568.155+405.509ZM568.155+395.915L568.155+402.336L561.1+402.336L561.1+395.915L568.155+395.915Z" fill="#ffffff" opacity="1"/>
<path opacity="1" d="M587.711+405.754L587.711+410.661L583.146+410.661L583.146+432.121L576.212+432.121L576.212+410.661L572.33+410.661L572.33+405.754L576.139+405.754L576.139+404.045C576.139+401.213+576.765+399.105+578.019+397.721C579.142+396.419+581.428+395.768+584.879+395.768C585.302+395.768+585.733+395.785+586.173+395.817C586.612+395.85+587.068+395.882+587.54+395.915L587.54+401.579C587.215+401.562+586.897+401.55+586.588+401.542C586.279+401.534+585.904+401.53+585.465+401.53C584.374+401.53+583.707+401.831+583.463+402.433C583.219+403.035+583.113+403.979+583.146+405.265L583.146+405.754L587.711+405.754ZM591.837+432.121L591.837+405.632L598.771+405.632L598.771+432.121L591.837+432.121ZM591.837+402.262L591.837+395.915L598.648+395.915L598.648+402.262L591.837+402.262Z" fill="#ffffff"/>
<path opacity="1" d="M616.69+410.758C614.347+410.758+612.743+411.922+611.881+414.25C611.425+415.487+611.197+417.131+611.197+419.181C611.197+421.134+611.425+422.705+611.881+423.893C612.711+426.107+614.273+427.214+616.568+427.214C618.196+427.214+619.352+426.774+620.035+425.895C620.719+425.016+621.134+423.877+621.28+422.477L628.385+422.477C628.222+424.593+627.457+426.595+626.09+428.483C623.909+431.527+620.678+433.049+616.397+433.049C612.117+433.049+608.967+431.779+606.949+429.24C604.931+426.701+603.922+423.405+603.922+419.352C603.922+414.779+605.037+411.222+607.267+408.683C609.496+406.144+612.573+404.875+616.495+404.875C619.832+404.875+622.562+405.623+624.686+407.121C626.81+408.618+628.067+411.263+628.458+415.055L621.329+415.055C621.199+414.062+620.865+413.167+620.328+412.37C619.547+411.296+618.334+410.758+616.69+410.758Z" fill="#ffffff"/>
<path d="M635.221+417.936C636.604+417.139+638.639+416.569+641.324+416.227L643.692+415.934C644.978+415.771+645.898+415.568+646.451+415.324C647.444+414.901+647.94+414.242+647.94+413.346C647.94+412.256+647.562+411.503+646.805+411.088C646.048+410.673+644.938+410.465+643.473+410.465C641.829+410.465+640.665+410.872+639.981+411.686C639.493+412.288+639.168+413.102+639.005+414.128L632.291+414.128C632.438+411.8+633.089+409.888+634.244+408.39C636.083+406.047+639.241+404.875+643.717+404.875C646.63+404.875+649.218+405.452+651.48+406.608C653.743+407.764+654.874+409.945+654.874+413.151L654.874+425.358C654.874+426.204+654.89+427.23+654.923+428.434C654.972+429.346+655.11+429.964+655.338+430.29C655.566+430.615+655.908+430.884+656.363+431.095L656.363+432.121L648.795+432.121C648.583+431.584+648.437+431.079+648.355+430.607C648.274+430.135+648.209+429.598+648.16+428.996C647.2+430.037+646.093+430.924+644.84+431.657C643.342+432.52+641.65+432.951+639.762+432.951C637.353+432.951+635.363+432.263+633.792+430.888C632.222+429.513+631.437+427.563+631.437+425.041C631.437+421.769+632.698+419.401+635.221+417.936ZM645.963+426.579C647.216+425.7+647.867+424.097+647.916+421.769L647.916+419.181C647.477+419.458+647.033+419.682+646.585+419.853C646.138+420.024+645.523+420.182+644.742+420.329L643.18+420.622C641.715+420.882+640.665+421.2+640.03+421.574C638.956+422.209+638.419+423.193+638.419+424.528C638.419+425.716+638.749+426.575+639.408+427.104C640.067+427.633+640.868+427.897+641.812+427.897C643.31+427.897+644.693+427.458+645.963+426.579Z" opacity="1" fill="#ffffff"/>
<path fill="#ffffff" opacity="1" d="M669.327+426.799C669.604+427.075+670.45+427.214+671.866+427.214C672.078+427.214+672.302+427.209+672.538+427.201C672.774+427.193+673.006+427.181+673.233+427.165L673.233+432.365L669.938+432.487C666.65+432.601+664.404+432.031+663.199+430.778C662.418+429.98+662.027+428.752+662.027+427.091L662.027+410.71L658.316+410.71L658.316+405.754L662.027+405.754L662.027+398.332L668.912+398.332L668.912+405.754L673.233+405.754L673.233+410.71L668.912+410.71L668.912+424.772C668.912+425.863+669.05+426.538+669.327+426.799Z"/>
<path d="M688.443+433C685.058+433+682.071+431.909+679.483+429.728C676.896+427.547+675.602+423.999+675.602+419.084C675.602+414.478+676.769+410.946+679.105+408.488C681.441+406.03+684.472+404.801+688.199+404.801C690.413+404.801+692.407+405.216+694.181+406.047C695.955+406.877+697.42+408.187+698.575+409.977C699.617+411.556+700.292+413.387+700.602+415.47C700.781+416.691+700.854+418.449+700.821+420.744L682.608+420.744C682.706+423.413+683.544+425.285+685.123+426.359C686.083+427.026+687.239+427.36+688.59+427.36C690.022+427.36+691.186+426.953+692.081+426.139C692.569+425.7+693.001+425.09+693.375+424.308L700.479+424.308C700.3+425.887+699.479+427.49+698.014+429.118C695.735+431.706+692.545+433+688.443+433ZM688.199+410.539C686.588+410.539+685.339+411.043+684.452+412.052C683.565+413.062+683.007+414.429+682.779+416.154L693.595+416.154C693.481+414.315+692.923+412.919+691.922+411.967C690.921+411.015+689.68+410.539+688.199+410.539Z" fill="#ffffff" opacity="1"/>
<text transform="matrix(1 0 0 1 170 451.12)" font-family="Helvetica-Bold" y="0" font-size="40" fill="#ffffff" opacity="1" text-anchor="start" x="0">
<tspan y="39" textLength="600.312" x="0" id="validity">Complete since 01.01.2022 (3/3)</tspan>
</text>
<text font-family="Helvetica-Bold" font-size="70" opacity="1" text-anchor="middle" x="0" fill="#ffffff" y="0" transform="matrix(1 0 0 1 252.604 1440)">
<tspan x="290.896" y="68" id="name">Max Mustermann</tspan>
</text>
<path d="M169.676+513.62L910.324+513.62C926.714+513.62+940+526.972+940+543.443L940+1383.8C940+1400.27+926.714+1413.62+910.324+1413.62L169.676+1413.62C153.286+1413.62+140+1400.27+140+1383.8L140+543.443C140+526.972+153.286+513.62+169.676+513.62Z" opacity="1" fill="#ffffff"/>
<path d="M161.198+1300.9L181.603+1300.9L181.603+1305.37L174.067+1305.37L174.067+1326.1L168.769+1326.1L168.769+1305.37L161.198+1305.37L161.198+1300.9Z" opacity="1" fill="#000000"/>
<path d="M195.634+1312.34C195.19+1311.47+194.347+1311.04+193.105+1311.04C191.817+1311.04+190.84+1311.47+190.174+1312.33C189.507+1313.19+189.174+1314.42+189.174+1316.01L189.174+1326.1L184.321+1326.1L184.321+1300.99L189.174+1300.99L189.174+1309.89C189.88+1308.81+190.698+1308.06+191.626+1307.63C192.555+1307.2+193.532+1306.99+194.557+1306.99C195.708+1306.99+196.753+1307.19+197.693+1307.59C198.633+1307.99+199.405+1308.6+200.009+1309.42C200.522+1310.11+200.835+1310.83+200.949+1311.56C201.063+1312.3+201.12+1313.49+201.12+1315.16L201.12+1326.1L196.147+1326.1L196.147+1314.76C196.147+1313.76+195.976+1312.95+195.634+1312.34Z" fill="#000000" opacity="1"/>
<path opacity="1" d="M210.673+1307.47L210.673+1326.1L205.734+1326.1L205.734+1307.47L210.673+1307.47ZM210.673+1300.75L210.673+1305.25L205.734+1305.25L205.734+1300.75L210.673+1300.75Z" fill="#000000"/>
<path opacity="1" d="M220.346+1311.16C219.89+1311.49+219.662+1311.88+219.662+1312.32C219.662+1312.88+219.902+1313.28+220.38+1313.53C220.859+1313.8+222.551+1314.25+225.456+1314.88C227.393+1315.34+228.845+1316.03+229.814+1316.95C230.771+1317.89+231.249+1319.05+231.249+1320.46C231.249+1322.3+230.563+1323.81+229.19+1324.98C227.817+1326.14+225.695+1326.73+222.824+1326.73C219.896+1326.73+217.734+1326.11+216.338+1324.87C214.943+1323.64+214.245+1322.06+214.245+1320.15L219.184+1320.15C219.286+1321.01+219.509+1321.63+219.85+1321.99C220.454+1322.64+221.571+1322.97+223.2+1322.97C224.157+1322.97+224.917+1322.83+225.481+1322.54C226.045+1322.26+226.327+1321.83+226.327+1321.26C226.327+1320.71+226.099+1320.3+225.644+1320.01C225.188+1319.73+223.496+1319.24+220.568+1318.54C218.46+1318.02+216.974+1317.36+216.108+1316.58C215.242+1315.8+214.809+1314.68+214.809+1313.23C214.809+1311.51+215.484+1310.03+216.834+1308.79C218.184+1307.56+220.084+1306.94+222.533+1306.94C224.858+1306.94+226.752+1307.4+228.216+1308.33C229.68+1309.26+230.52+1310.86+230.737+1313.14L225.866+1313.14C225.798+1312.51+225.621+1312.02+225.336+1311.65C224.801+1310.99+223.889+1310.66+222.602+1310.66C221.542+1310.66+220.79+1310.83+220.346+1311.16Z" fill="#000000"/>
<path fill="#000000" opacity="1" d="M264.352+1303.19C266.904+1305.55+268.18+1308.85+268.18+1313.09C268.18+1315.33+267.907+1317.21+267.36+1318.73C266.916+1320.18+266.261+1321.38+265.395+1322.34L268.3+1325.05L265.549+1327.92L262.507+1325.05C261.584+1325.61+260.786+1326+260.114+1326.23C258.986+1326.61+257.636+1326.8+256.064+1326.8C252.782+1326.8+250.071+1325.82+247.929+1323.86C245.331+1321.5+244.032+1318.03+244.032+1313.47C244.032+1308.86+245.365+1305.38+248.031+1303.02C250.208+1301.1+252.913+1300.14+256.149+1300.14C259.408+1300.14+262.142+1301.16+264.352+1303.19ZM256.44+1319.26L259.157+1316.42L261.703+1318.85C262.102+1318.03+262.381+1317.31+262.541+1316.7C262.791+1315.77+262.917+1314.7+262.917+1313.47C262.917+1310.64+262.339+1308.46+261.182+1306.91C260.026+1305.37+258.337+1304.6+256.115+1304.6C254.03+1304.6+252.367+1305.34+251.125+1306.82C249.883+1308.3+249.262+1310.51+249.262+1313.47C249.262+1316.92+250.151+1319.39+251.928+1320.88C253.079+1321.85+254.457+1322.34+256.064+1322.34C256.668+1322.34+257.249+1322.26+257.807+1322.11C258.114+1322.03+258.508+1321.89+258.986+1321.69L256.44+1319.26Z"/>
<path d="M288.757+1301.55C289.702+1301.95+290.505+1302.54+291.166+1303.31C291.713+1303.95+292.146+1304.66+292.465+1305.43C292.784+1306.21+292.944+1307.09+292.944+1308.08C292.944+1309.28+292.642+1310.46+292.038+1311.61C291.434+1312.77+290.437+1313.59+289.047+1314.06C290.209+1314.53+291.032+1315.19+291.517+1316.05C292.001+1316.92+292.243+1318.23+292.243+1319.99L292.243+1321.69C292.243+1322.84+292.288+1323.62+292.38+1324.03C292.516+1324.68+292.835+1325.16+293.337+1325.46L293.337+1326.1L287.543+1326.1C287.384+1325.54+287.27+1325.09+287.201+1324.75C287.065+1324.04+286.991+1323.32+286.979+1322.57L286.945+1320.23C286.922+1318.63+286.629+1317.56+286.065+1317.02C285.501+1316.48+284.444+1316.22+282.895+1316.22L277.46+1316.22L277.46+1326.1L272.316+1326.1L272.316+1300.9L284.672+1300.9C286.438+1300.94+287.8+1301.16+288.757+1301.55ZM287.663+1308.8C287.663+1307.27+287.156+1306.25+286.142+1305.72C285.572+1305.43+284.718+1305.28+283.578+1305.28L277.46+1305.28L277.46+1312.05L283.425+1312.05C284.609+1312.05+285.498+1311.91+286.091+1311.64C287.139+1311.16+287.663+1310.21+287.663+1308.8Z" opacity="1" fill="#000000"/>
<path opacity="1" d="M314.682+1311.14C313.041+1311.14+311.919+1311.96+311.315+1313.59C310.996+1314.45+310.837+1315.6+310.837+1317.04C310.837+1318.4+310.996+1319.5+311.315+1320.34C311.896+1321.89+312.99+1322.66+314.596+1322.66C315.736+1322.66+316.545+1322.35+317.023+1321.74C317.502+1321.12+317.792+1320.32+317.895+1319.34L322.868+1319.34C322.754+1320.83+322.218+1322.23+321.261+1323.55C319.735+1325.68+317.473+1326.74+314.477+1326.74C311.48+1326.74+309.276+1325.86+307.863+1324.08C306.45+1322.3+305.744+1319.99+305.744+1317.16C305.744+1313.96+306.524+1311.47+308.085+1309.69C309.646+1307.91+311.799+1307.02+314.545+1307.02C316.881+1307.02+318.792+1307.55+320.279+1308.6C321.766+1309.64+322.646+1311.49+322.919+1314.15L317.929+1314.15C317.838+1313.45+317.604+1312.83+317.228+1312.27C316.681+1311.52+315.833+1311.14+314.682+1311.14Z" fill="#000000"/>
<path fill="#000000" d="M341.803+1309.83C343.376+1311.8+344.162+1314.13+344.162+1316.82C344.162+1319.55+343.376+1321.89+341.803+1323.83C340.231+1325.77+337.844+1326.74+334.643+1326.74C331.441+1326.74+329.054+1325.77+327.482+1323.83C325.91+1321.89+325.124+1319.55+325.124+1316.82C325.124+1314.13+325.91+1311.8+327.482+1309.83C329.054+1307.85+331.441+1306.87+334.643+1306.87C337.844+1306.87+340.231+1307.85+341.803+1309.83ZM337.907+1312.49C337.144+1311.49+336.05+1310.99+334.626+1310.99C333.202+1310.99+332.105+1311.49+331.336+1312.5C330.567+1313.51+330.182+1314.95+330.182+1316.82C330.182+1318.68+330.567+1320.13+331.336+1321.14C332.105+1322.15+333.202+1322.66+334.626+1322.66C336.05+1322.66+337.144+1322.15+337.907+1321.14C338.67+1320.13+339.052+1318.68+339.052+1316.82C339.052+1314.95+338.67+1313.51+337.907+1312.49Z" opacity="1"/>
<path d="M357.492+1325.92C356.603+1326.43+355.498+1326.68+354.176+1326.68C352+1326.68+350.169+1325.8+348.682+1324.04C347.195+1322.28+346.452+1320.02+346.452+1317.26C346.452+1314.08+347.184+1311.58+348.648+1309.76C350.112+1307.93+352.069+1307.02+354.518+1307.02C355.646+1307.02+356.649+1307.27+357.526+1307.77C358.403+1308.26+359.115+1308.95+359.662+1309.83L359.662+1300.94L364.601+1300.94L364.601+1326.1L359.867+1326.1L359.867+1323.51C359.172+1324.62+358.381+1325.42+357.492+1325.92ZM355.612+1311.28C354.188+1311.28+353.143+1311.82+352.476+1312.89C351.81+1313.97+351.476+1315.31+351.476+1316.9C351.476+1318.62+351.815+1320+352.493+1321.03C353.171+1322.06+354.199+1322.57+355.578+1322.57C356.956+1322.57+358.005+1322.06+358.722+1321.04C359.44+1320.01+359.799+1318.68+359.799+1317.05C359.799+1314.78+359.224+1313.15+358.073+1312.17C357.367+1311.57+356.546+1311.28+355.612+1311.28Z" opacity="1" fill="#000000"/>
<path opacity="1" fill="#000000" d="M376.547+1326.71C374.177+1326.71+372.087+1325.95+370.275+1324.42C368.464+1322.89+367.558+1320.41+367.558+1316.97C367.558+1313.74+368.375+1311.27+370.01+1309.55C371.645+1307.83+373.767+1306.97+376.376+1306.97C377.926+1306.97+379.321+1307.26+380.563+1307.84C381.805+1308.42+382.83+1309.34+383.639+1310.59C384.369+1311.7+384.841+1312.98+385.058+1314.44C385.183+1315.29+385.234+1316.52+385.212+1318.13L372.463+1318.13C372.531+1320+373.118+1321.31+374.223+1322.06C374.895+1322.53+375.704+1322.76+376.65+1322.76C377.652+1322.76+378.467+1322.48+379.093+1321.91C379.435+1321.6+379.737+1321.17+379.999+1320.63L384.972+1320.63C384.847+1321.73+384.272+1322.85+383.246+1323.99C381.651+1325.8+379.418+1326.71+376.547+1326.71ZM376.376+1310.99C375.248+1310.99+374.374+1311.34+373.753+1312.05C373.132+1312.75+372.742+1313.71+372.582+1314.92L380.153+1314.92C380.073+1313.63+379.683+1312.65+378.982+1311.99C378.282+1311.32+377.413+1310.99+376.376+1310.99Z"/>
<path d="M406.095+1311.14C404.455+1311.14+403.333+1311.96+402.729+1313.59C402.41+1314.45+402.25+1315.6+402.25+1317.04C402.25+1318.4+402.41+1319.5+402.729+1320.34C403.31+1321.89+404.404+1322.66+406.01+1322.66C407.149+1322.66+407.958+1322.35+408.437+1321.74C408.915+1321.12+409.206+1320.32+409.308+1319.34L414.281+1319.34C414.168+1320.83+413.632+1322.23+412.675+1323.55C411.148+1325.68+408.887+1326.74+405.89+1326.74C402.894+1326.74+400.689+1325.86+399.277+1324.08C397.864+1322.3+397.157+1319.99+397.157+1317.16C397.157+1313.96+397.938+1311.47+399.499+1309.69C401.06+1307.91+403.213+1307.02+405.959+1307.02C408.294+1307.02+410.206+1307.55+411.692+1308.6C413.179+1309.64+414.059+1311.49+414.333+1314.15L409.342+1314.15C409.251+1313.45+409.018+1312.83+408.642+1312.27C408.095+1311.52+407.246+1311.14+406.095+1311.14Z" opacity="1" fill="#000000"/>
<path d="M419.067+1316.17C420.035+1315.61+421.459+1315.21+423.339+1314.97L424.997+1314.76C425.897+1314.65+426.541+1314.51+426.928+1314.34C427.623+1314.04+427.97+1313.58+427.97+1312.95C427.97+1312.19+427.706+1311.66+427.176+1311.37C426.646+1311.08+425.868+1310.94+424.843+1310.94C423.692+1310.94+422.878+1311.22+422.399+1311.79C422.057+1312.21+421.829+1312.78+421.716+1313.5L417.016+1313.5C417.118+1311.87+417.574+1310.53+418.383+1309.48C419.67+1307.84+421.881+1307.02+425.014+1307.02C427.053+1307.02+428.865+1307.43+430.448+1308.24C432.032+1309.05+432.824+1310.57+432.824+1312.82L432.824+1321.36C432.824+1321.95+432.835+1322.67+432.858+1323.51C432.892+1324.15+432.989+1324.59+433.149+1324.81C433.308+1325.04+433.547+1325.23+433.866+1325.38L433.866+1326.1L428.569+1326.1C428.42+1325.72+428.318+1325.37+428.261+1325.04C428.204+1324.71+428.158+1324.33+428.124+1323.91C427.452+1324.64+426.677+1325.26+425.8+1325.77C424.752+1326.37+423.567+1326.68+422.245+1326.68C420.559+1326.68+419.166+1326.19+418.067+1325.23C416.967+1324.27+416.418+1322.91+416.418+1321.14C416.418+1318.85+417.301+1317.19+419.067+1316.17ZM426.586+1322.22C427.463+1321.6+427.919+1320.48+427.953+1318.85L427.953+1317.04C427.646+1317.23+427.335+1317.39+427.022+1317.51C426.709+1317.63+426.279+1317.74+425.732+1317.84L424.638+1318.05C423.613+1318.23+422.878+1318.45+422.433+1318.71C421.681+1319.16+421.305+1319.85+421.305+1320.78C421.305+1321.61+421.536+1322.21+421.998+1322.58C422.459+1322.95+423.02+1323.14+423.681+1323.14C424.729+1323.14+425.697+1322.83+426.586+1322.22Z" fill="#000000" opacity="1"/>
<path d="M452.204+1308.53C453.423+1309.54+454.032+1311.22+454.032+1313.55L454.032+1326.1L449.042+1326.1L449.042+1314.76C449.042+1313.78+448.911+1313.03+448.649+1312.51C448.171+1311.55+447.259+1311.07+445.915+1311.07C444.263+1311.07+443.129+1311.77+442.514+1313.18C442.195+1313.92+442.035+1314.86+442.035+1316.01L442.035+1326.1L437.182+1326.1L437.182+1307.5L441.882+1307.5L441.882+1310.22C442.508+1309.26+443.101+1308.57+443.659+1308.15C444.662+1307.4+445.932+1307.02+447.47+1307.02C449.395+1307.02+450.973+1307.52+452.204+1308.53Z" opacity="1" fill="#000000"/>
<path d="M474.66+1325.67C474.102+1325.3+473.498+1324.67+472.848+1323.75L472.848+1326.1L468.08+1326.1L468.08+1300.94L472.934+1300.94L472.934+1309.89C473.549+1309.03+474.227+1308.37+474.967+1307.91C475.845+1307.34+476.961+1307.06+478.317+1307.06C480.767+1307.06+482.684+1307.94+484.068+1309.71C485.452+1311.47+486.144+1313.75+486.144+1316.54C486.144+1319.44+485.461+1321.83+484.093+1323.74C482.726+1325.64+480.818+1326.59+478.368+1326.59C476.83+1326.59+475.594+1326.28+474.66+1325.67ZM476.933+1311.31C475.167+1311.31+473.954+1312.12+473.293+1313.72C472.951+1314.58+472.78+1315.68+472.78+1317.04C472.78+1318.63+473.133+1319.95+473.84+1321C474.546+1322.05+475.623+1322.57+477.07+1322.57C478.323+1322.57+479.297+1322.07+479.992+1321.05C480.687+1320.04+481.034+1318.71+481.034+1317.05C481.034+1315.73+480.863+1314.64+480.522+1313.77C479.872+1312.13+478.676+1311.31+476.933+1311.31Z" opacity="1" fill="#000000"/>
<path fill="#000000" opacity="1" d="M497.15+1326.71C494.78+1326.71+492.69+1325.95+490.878+1324.42C489.067+1322.89+488.161+1320.41+488.161+1316.97C488.161+1313.74+488.978+1311.27+490.613+1309.55C492.248+1307.83+494.37+1306.97+496.979+1306.97C498.529+1306.97+499.924+1307.26+501.166+1307.84C502.408+1308.42+503.433+1309.34+504.242+1310.59C504.972+1311.7+505.444+1312.98+505.661+1314.44C505.786+1315.29+505.837+1316.52+505.815+1318.13L493.066+1318.13C493.134+1320+493.721+1321.31+494.826+1322.06C495.498+1322.53+496.307+1322.76+497.253+1322.76C498.255+1322.76+499.07+1322.48+499.697+1321.91C500.038+1321.6+500.34+1321.17+500.602+1320.63L505.575+1320.63C505.45+1321.73+504.875+1322.85+503.849+1323.99C502.254+1325.8+500.021+1326.71+497.15+1326.71ZM496.979+1310.99C495.851+1310.99+494.977+1311.34+494.356+1312.05C493.735+1312.75+493.345+1313.71+493.185+1314.92L500.756+1314.92C500.676+1313.63+500.286+1312.65+499.585+1311.99C498.885+1311.32+498.016+1310.99+496.979+1310.99Z"/>
<path d="M528.766+1311.98C528.527+1311.97+528.333+1311.96+528.185+1311.96C526.226+1311.96+524.91+1312.6+524.238+1313.88C523.862+1314.59+523.674+1315.7+523.674+1317.19L523.674+1326.1L518.769+1326.1L518.769+1307.47L523.417+1307.47L523.417+1310.71C524.169+1309.47+524.824+1308.62+525.383+1308.17C526.294+1307.4+527.479+1307.02+528.937+1307.02C529.028+1307.02+529.105+1307.03+529.168+1307.03C529.231+1307.04+529.37+1307.05+529.587+1307.06L529.587+1312.05C529.279+1312.01+529.006+1311.99+528.766+1311.98Z" opacity="1" fill="#000000"/>
<path fill="#000000" d="M539.96+1326.71C537.59+1326.71+535.5+1325.95+533.688+1324.42C531.877+1322.89+530.971+1320.41+530.971+1316.97C530.971+1313.74+531.788+1311.27+533.423+1309.55C535.058+1307.83+537.18+1306.97+539.789+1306.97C541.339+1306.97+542.734+1307.26+543.976+1307.84C545.218+1308.42+546.244+1309.34+547.052+1310.59C547.782+1311.7+548.254+1312.98+548.471+1314.44C548.596+1315.29+548.648+1316.52+548.625+1318.13L535.876+1318.13C535.944+1320+536.531+1321.31+537.636+1322.06C538.308+1322.53+539.117+1322.76+540.063+1322.76C541.065+1322.76+541.88+1322.48+542.507+1321.91C542.848+1321.6+543.15+1321.17+543.412+1320.63L548.385+1320.63C548.26+1321.73+547.685+1322.85+546.659+1323.99C545.064+1325.8+542.831+1326.71+539.96+1326.71ZM539.789+1310.99C538.661+1310.99+537.787+1311.34+537.166+1312.05C536.545+1312.75+536.155+1313.71+535.995+1314.92L543.566+1314.92C543.486+1313.63+543.096+1312.65+542.395+1311.99C541.695+1311.32+540.826+1310.99+539.789+1310.99Z" opacity="1"/>
<path d="M552.009+1300.9L556.879+1300.9L556.879+1326.1L552.009+1326.1L552.009+1300.9Z" opacity="1" fill="#000000"/>
<path opacity="1" fill="#000000" d="M566.637+1307.47L566.637+1326.1L561.698+1326.1L561.698+1307.47L566.637+1307.47ZM566.637+1300.75L566.637+1305.25L561.698+1305.25L561.698+1300.75L566.637+1300.75Z"/>
<path fill="#000000" d="M572.738+1316.17C573.707+1315.61+575.131+1315.21+577.011+1314.97L578.669+1314.76C579.569+1314.65+580.212+1314.51+580.6+1314.34C581.295+1314.04+581.642+1313.58+581.642+1312.95C581.642+1312.19+581.377+1311.66+580.848+1311.37C580.318+1311.08+579.54+1310.94+578.515+1310.94C577.364+1310.94+576.55+1311.22+576.071+1311.79C575.729+1312.21+575.501+1312.78+575.387+1313.5L570.688+1313.5C570.79+1311.87+571.246+1310.53+572.055+1309.48C573.342+1307.84+575.553+1307.02+578.686+1307.02C580.725+1307.02+582.537+1307.43+584.12+1308.24C585.704+1309.05+586.496+1310.57+586.496+1312.82L586.496+1321.36C586.496+1321.95+586.507+1322.67+586.53+1323.51C586.564+1324.15+586.661+1324.59+586.821+1324.81C586.98+1325.04+587.219+1325.23+587.538+1325.38L587.538+1326.1L582.24+1326.1C582.092+1325.72+581.99+1325.37+581.933+1325.04C581.876+1324.71+581.83+1324.33+581.796+1323.91C581.124+1324.64+580.349+1325.26+579.472+1325.77C578.424+1326.37+577.239+1326.68+575.917+1326.68C574.231+1326.68+572.838+1326.19+571.739+1325.23C570.639+1324.27+570.09+1322.91+570.09+1321.14C570.09+1318.85+570.973+1317.19+572.738+1316.17ZM580.258+1322.22C581.135+1321.6+581.591+1320.48+581.625+1318.85L581.625+1317.04C581.318+1317.23+581.007+1317.39+580.694+1317.51C580.381+1317.63+579.95+1317.74+579.404+1317.84L578.31+1318.05C577.284+1318.23+576.55+1318.45+576.105+1318.71C575.353+1319.16+574.977+1319.85+574.977+1320.78C574.977+1321.61+575.208+1322.21+575.669+1322.58C576.131+1322.95+576.692+1323.14+577.353+1323.14C578.401+1323.14+579.369+1322.83+580.258+1322.22Z" opacity="1"/>
<path d="M597.228+1325.67C596.67+1325.3+596.066+1324.67+595.417+1323.75L595.417+1326.1L590.649+1326.1L590.649+1300.94L595.502+1300.94L595.502+1309.89C596.117+1309.03+596.795+1308.37+597.536+1307.91C598.413+1307.34+599.53+1307.06+600.885+1307.06C603.335+1307.06+605.252+1307.94+606.636+1309.71C608.02+1311.47+608.713+1313.75+608.713+1316.54C608.713+1319.44+608.029+1321.83+606.662+1323.74C605.295+1325.64+603.386+1326.59+600.937+1326.59C599.399+1326.59+598.162+1326.28+597.228+1325.67ZM599.501+1311.31C597.735+1311.31+596.522+1312.12+595.861+1313.72C595.519+1314.58+595.348+1315.68+595.348+1317.04C595.348+1318.63+595.702+1319.95+596.408+1321C597.114+1322.05+598.191+1322.57+599.638+1322.57C600.891+1322.57+601.865+1322.07+602.56+1321.05C603.255+1320.04+603.603+1318.71+603.603+1317.05C603.603+1315.73+603.432+1314.64+603.09+1313.77C602.441+1312.13+601.244+1311.31+599.501+1311.31Z" opacity="1" fill="#000000"/>
<path opacity="1" fill="#000000" d="M612.301+1300.9L617.172+1300.9L617.172+1326.1L612.301+1326.1L612.301+1300.9Z"/>
<path opacity="1" d="M626.554+1328.04C626.794+1327.43+626.891+1327.05+626.845+1326.92L620.009+1307.47L625.426+1307.47L629.494+1321.21L633.339+1307.47L638.517+1307.47L632.126+1325.79C630.895+1329.32+629.921+1331.51+629.203+1332.36C628.486+1333.21+627.05+1333.63+624.897+1333.63C624.464+1333.63+624.116+1333.63+623.854+1333.62C623.592+1333.62+623.199+1333.6+622.675+1333.56L622.675+1329.67L623.29+1329.7C623.769+1329.72+624.224+1329.71+624.657+1329.65C625.09+1329.59+625.455+1329.46+625.751+1329.26C626.036+1329.06+626.304+1328.66+626.554+1328.04Z" fill="#000000"/>
<path fill="#000000" d="M655.966+1326.1L649.284+1307.47L654.753+1307.47L658.632+1321.21L662.597+1307.47L667.826+1307.47L661.11+1326.1L655.966+1326.1Z" opacity="1"/>
<path fill="#000000" d="M678.097+1326.71C675.728+1326.71+673.637+1325.95+671.825+1324.42C670.014+1322.89+669.108+1320.41+669.108+1316.97C669.108+1313.74+669.926+1311.27+671.561+1309.55C673.195+1307.83+675.317+1306.97+677.926+1306.97C679.476+1306.97+680.872+1307.26+682.113+1307.84C683.355+1308.42+684.381+1309.34+685.19+1310.59C685.919+1311.7+686.392+1312.98+686.608+1314.44C686.733+1315.29+686.785+1316.52+686.762+1318.13L674.013+1318.13C674.081+1320+674.668+1321.31+675.773+1322.06C676.445+1322.53+677.254+1322.76+678.2+1322.76C679.203+1322.76+680.017+1322.48+680.644+1321.91C680.986+1321.6+681.287+1321.17+681.55+1320.63L686.523+1320.63C686.397+1321.73+685.822+1322.85+684.797+1323.99C683.202+1325.8+680.968+1326.71+678.097+1326.71ZM677.926+1310.99C676.799+1310.99+675.924+1311.34+675.303+1312.05C674.682+1312.75+674.292+1313.71+674.133+1314.92L681.703+1314.92C681.624+1313.63+681.233+1312.65+680.533+1311.99C679.832+1311.32+678.963+1310.99+677.926+1310.99Z" opacity="1"/>
<path opacity="1" fill="#000000" d="M699.989+1311.98C699.75+1311.97+699.557+1311.96+699.408+1311.96C697.449+1311.96+696.133+1312.6+695.461+1313.88C695.085+1314.59+694.897+1315.7+694.897+1317.19L694.897+1326.1L689.992+1326.1L689.992+1307.47L694.64+1307.47L694.64+1310.71C695.392+1309.47+696.047+1308.62+696.606+1308.17C697.517+1307.4+698.702+1307.02+700.16+1307.02C700.252+1307.02+700.328+1307.03+700.391+1307.03C700.454+1307.04+700.593+1307.05+700.81+1307.06L700.81+1312.05C700.502+1312.01+700.229+1311.99+699.989+1311.98Z"/>
<path fill="#000000" opacity="1" d="M708.671+1307.47L708.671+1326.1L703.732+1326.1L703.732+1307.47L708.671+1307.47ZM708.671+1300.75L708.671+1305.25L703.732+1305.25L703.732+1300.75L708.671+1300.75Z"/>
<path opacity="1" fill="#000000" d="M722.36+1307.64L722.36+1311.07L719.164+1311.07L719.164+1326.1L714.311+1326.1L714.311+1311.07L711.593+1311.07L711.593+1307.64L714.259+1307.64L714.259+1306.44C714.259+1304.46+714.698+1302.98+715.575+1302.02C716.362+1301.1+717.962+1300.65+720.378+1300.65C720.674+1300.65+720.976+1300.66+721.283+1300.68C721.591+1300.71+721.91+1300.73+722.24+1300.75L722.24+1304.72C722.013+1304.7+721.79+1304.7+721.574+1304.69C721.357+1304.68+721.095+1304.68+720.788+1304.68C720.024+1304.68+719.557+1304.89+719.386+1305.31C719.216+1305.74+719.141+1306.4+719.164+1307.3L719.164+1307.64L722.36+1307.64ZM725.248+1326.1L725.248+1307.55L730.102+1307.55L730.102+1326.1L725.248+1326.1ZM725.248+1305.19L725.248+1300.75L730.016+1300.75L730.016+1305.19L725.248+1305.19Z"/>
<path fill="#000000" opacity="1" d="M742.287+1326.71C739.917+1326.71+737.826+1325.95+736.015+1324.42C734.203+1322.89+733.298+1320.41+733.298+1316.97C733.298+1313.74+734.115+1311.27+735.75+1309.55C737.385+1307.83+739.507+1306.97+742.116+1306.97C743.665+1306.97+745.061+1307.26+746.303+1307.84C747.545+1308.42+748.57+1309.34+749.379+1310.59C750.108+1311.7+750.581+1312.98+750.798+1314.44C750.923+1315.29+750.974+1316.52+750.951+1318.13L738.202+1318.13C738.271+1320+738.857+1321.31+739.963+1322.06C740.635+1322.53+741.444+1322.76+742.389+1322.76C743.392+1322.76+744.207+1322.48+744.833+1321.91C745.175+1321.6+745.477+1321.17+745.739+1320.63L750.712+1320.63C750.587+1321.73+750.011+1322.85+748.986+1323.99C747.391+1325.8+745.158+1326.71+742.287+1326.71ZM742.116+1310.99C740.988+1310.99+740.114+1311.34+739.493+1312.05C738.872+1312.75+738.481+1313.71+738.322+1314.92L745.893+1314.92C745.813+1313.63+745.423+1312.65+744.722+1311.99C744.021+1311.32+743.153+1310.99+742.116+1310.99Z"/>
<path d="M764.076+1325.92C763.188+1326.43+762.083+1326.68+760.761+1326.68C758.585+1326.68+756.753+1325.8+755.267+1324.04C753.78+1322.28+753.036+1320.02+753.036+1317.26C753.036+1314.08+753.768+1311.58+755.232+1309.76C756.696+1307.93+758.653+1307.02+761.103+1307.02C762.231+1307.02+763.233+1307.27+764.111+1307.77C764.988+1308.26+765.7+1308.95+766.247+1309.83L766.247+1300.94L771.186+1300.94L771.186+1326.1L766.452+1326.1L766.452+1323.51C765.757+1324.62+764.965+1325.42+764.076+1325.92ZM762.197+1311.28C760.772+1311.28+759.727+1311.82+759.061+1312.89C758.394+1313.97+758.061+1315.31+758.061+1316.9C758.061+1318.62+758.4+1320+759.078+1321.03C759.756+1322.06+760.784+1322.57+762.162+1322.57C763.541+1322.57+764.589+1322.06+765.307+1321.04C766.025+1320.01+766.384+1318.68+766.384+1317.05C766.384+1314.78+765.808+1313.15+764.657+1312.17C763.951+1311.57+763.131+1311.28+762.197+1311.28Z" fill="#000000" opacity="1"/>
<path d="M793.591+1326.1L788.532+1326.1L783.302+1307.47L788.532+1307.47L791.437+1320.83L794.12+1307.47L799.059+1307.47L801.896+1320.88L804.801+1307.47L809.877+1307.47L804.477+1326.1L799.469+1326.1L796.547+1312.53L793.591+1326.1Z" opacity="1" fill="#000000"/>
<path d="M817.568+1307.47L817.568+1326.1L812.629+1326.1L812.629+1307.47L817.568+1307.47ZM817.568+1300.75L817.568+1305.25L812.629+1305.25L812.629+1300.75L817.568+1300.75Z" opacity="1" fill="#000000"/>
<path fill="#000000" d="M828.078+1322.37C828.272+1322.56+828.864+1322.66+829.855+1322.66C830.003+1322.66+830.16+1322.66+830.325+1322.65C830.49+1322.65+830.653+1322.64+830.812+1322.63L830.812+1326.27L828.505+1326.35C826.204+1326.43+824.631+1326.03+823.788+1325.16C823.241+1324.6+822.968+1323.74+822.968+1322.57L822.968+1311.11L820.37+1311.11L820.37+1307.64L822.968+1307.64L822.968+1302.44L827.787+1302.44L827.787+1307.64L830.812+1307.64L830.812+1311.11L827.787+1311.11L827.787+1320.95C827.787+1321.71+827.884+1322.19+828.078+1322.37Z" opacity="1"/>
<path d="M845.287+1312.34C844.843+1311.47+844+1311.04+842.758+1311.04C841.471+1311.04+840.494+1311.47+839.827+1312.33C839.161+1313.19+838.827+1314.42+838.827+1316.01L838.827+1326.1L833.974+1326.1L833.974+1300.99L838.827+1300.99L838.827+1309.89C839.534+1308.81+840.351+1308.06+841.28+1307.63C842.208+1307.2+843.185+1306.99+844.211+1306.99C845.361+1306.99+846.407+1307.19+847.347+1307.59C848.287+1307.99+849.058+1308.6+849.662+1309.42C850.175+1310.11+850.488+1310.83+850.602+1311.56C850.716+1312.3+850.773+1313.49+850.773+1315.16L850.773+1326.1L845.8+1326.1L845.8+1314.76C845.8+1313.76+845.629+1312.95+845.287+1312.34Z" fill="#000000" opacity="1"/>
<path fill="#000000" d="M870.837+1322.37C871.03+1322.56+871.623+1322.66+872.614+1322.66C872.762+1322.66+872.919+1322.66+873.084+1322.65C873.249+1322.65+873.412+1322.64+873.571+1322.63L873.571+1326.27L871.264+1326.35C868.962+1326.43+867.39+1326.03+866.547+1325.16C866+1324.6+865.727+1323.74+865.727+1322.57L865.727+1311.11L863.129+1311.11L863.129+1307.64L865.727+1307.64L865.727+1302.44L870.546+1302.44L870.546+1307.64L873.571+1307.64L873.571+1311.11L870.546+1311.11L870.546+1320.95C870.546+1321.71+870.643+1322.19+870.837+1322.37Z" opacity="1"/>
<path opacity="1" fill="#000000" d="M888.046+1312.34C887.602+1311.47+886.759+1311.04+885.517+1311.04C884.229+1311.04+883.252+1311.47+882.586+1312.33C881.919+1313.19+881.586+1314.42+881.586+1316.01L881.586+1326.1L876.733+1326.1L876.733+1300.99L881.586+1300.99L881.586+1309.89C882.293+1308.81+883.11+1308.06+884.039+1307.63C884.967+1307.2+885.944+1306.99+886.969+1306.99C888.12+1306.99+889.165+1307.19+890.105+1307.59C891.045+1307.99+891.817+1308.6+892.421+1309.42C892.934+1310.11+893.247+1310.83+893.361+1311.56C893.475+1312.3+893.532+1313.49+893.532+1315.16L893.532+1326.1L888.559+1326.1L888.559+1314.76C888.559+1313.76+888.388+1312.95+888.046+1312.34Z"/>
<path opacity="1" fill="#000000" d="M905.597+1326.71C903.228+1326.71+901.137+1325.95+899.325+1324.42C897.514+1322.89+896.608+1320.41+896.608+1316.97C896.608+1313.74+897.426+1311.27+899.061+1309.55C900.695+1307.83+902.817+1306.97+905.426+1306.97C906.976+1306.97+908.372+1307.26+909.613+1307.84C910.855+1308.42+911.881+1309.34+912.69+1310.59C913.419+1311.7+913.892+1312.98+914.108+1314.44C914.233+1315.29+914.285+1316.52+914.262+1318.13L901.513+1318.13C901.581+1320+902.168+1321.31+903.273+1322.06C903.945+1322.53+904.754+1322.76+905.7+1322.76C906.703+1322.76+907.517+1322.48+908.144+1321.91C908.486+1321.6+908.787+1321.17+909.05+1320.63L914.023+1320.63C913.897+1321.73+913.322+1322.85+912.297+1323.99C910.702+1325.8+908.468+1326.71+905.597+1326.71ZM905.426+1310.99C904.299+1310.99+903.424+1311.34+902.803+1312.05C902.182+1312.75+901.792+1313.71+901.633+1314.92L909.203+1314.92C909.124+1313.63+908.733+1312.65+908.033+1311.99C907.332+1311.32+906.463+1310.99+905.426+1310.99Z"/>
<path d="M173.862+1377.05C170.238+1377.05+167.39+1375.88+165.317+1373.56C163.243+1371.22+162.206+1368.02+162.206+1363.96C162.206+1359.56+163.385+1356.17+165.744+1353.79C167.795+1351.71+170.404+1350.68+173.571+1350.68C177.809+1350.68+180.908+1352.07+182.868+1354.85C183.95+1356.41+184.531+1357.97+184.611+1359.55L179.347+1359.55C179.006+1358.34+178.567+1357.43+178.031+1356.81C177.074+1355.72+175.656+1355.17+173.776+1355.17C171.862+1355.17+170.352+1355.94+169.247+1357.49C168.142+1359.03+167.59+1361.21+167.59+1364.04C167.59+1366.87+168.173+1368.98+169.341+1370.39C170.509+1371.8+171.993+1372.5+173.793+1372.5C175.639+1372.5+177.046+1371.9+178.014+1370.69C178.55+1370.04+178.994+1369.06+179.347+1367.77L184.56+1367.77C184.104+1370.51+182.939+1372.74+181.065+1374.47C179.191+1376.19+176.79+1377.05+173.862+1377.05Z" opacity="1" fill="#000000"/>
<path d="M203.717+1360.08C205.29+1362.05+206.076+1364.38+206.076+1367.07C206.076+1369.8+205.29+1372.14+203.717+1374.08C202.145+1376.02+199.758+1376.99+196.557+1376.99C193.355+1376.99+190.968+1376.02+189.396+1374.08C187.824+1372.14+187.038+1369.8+187.038+1367.07C187.038+1364.38+187.824+1362.05+189.396+1360.08C190.968+1358.1+193.355+1357.12+196.557+1357.12C199.758+1357.12+202.145+1358.1+203.717+1360.08ZM199.821+1362.74C199.058+1361.74+197.964+1361.24+196.54+1361.24C195.116+1361.24+194.019+1361.74+193.25+1362.75C192.481+1363.76+192.096+1365.2+192.096+1367.07C192.096+1368.93+192.481+1370.38+193.25+1371.39C194.019+1372.4+195.116+1372.91+196.54+1372.91C197.964+1372.91+199.058+1372.4+199.821+1371.39C200.584+1370.38+200.966+1368.93+200.966+1367.07C200.966+1365.2+200.584+1363.76+199.821+1362.74Z" fill="#000000" opacity="1"/>
<path fill="#000000" opacity="1" d="M214.416+1376.35L207.734+1357.72L213.202+1357.72L217.082+1371.46L221.047+1357.72L226.276+1357.72L219.56+1376.35L214.416+1376.35Z"/>
<path d="M240.119+1367.29L234.77+1367.29L234.77+1376.35L229.54+1376.35L229.54+1351.15L240.512+1351.15C243.041+1351.15+245.058+1351.8+246.562+1353.1C248.066+1354.4+248.818+1356.41+248.818+1359.14C248.818+1362.11+248.066+1364.21+246.562+1365.44C245.058+1366.67+242.91+1367.29+240.119+1367.29ZM243.605+1359.17C243.605+1357.86+243.261+1356.93+242.571+1356.37C241.882+1355.81+240.916+1355.53+239.675+1355.53L234.77+1355.53L234.77+1362.95L239.675+1362.95C240.916+1362.95+241.882+1362.64+242.571+1362.04C243.261+1361.44+243.605+1360.48+243.605+1359.17Z" opacity="1" fill="#000000"/>
<path d="M253.757+1366.42C254.725+1365.86+256.149+1365.46+258.029+1365.22L259.687+1365.01C260.587+1364.9+261.231+1364.76+261.618+1364.59C262.313+1364.29+262.66+1363.83+262.66+1363.2C262.66+1362.44+262.395+1361.91+261.866+1361.62C261.336+1361.33+260.558+1361.19+259.533+1361.19C258.382+1361.19+257.568+1361.47+257.089+1362.04C256.747+1362.46+256.519+1363.03+256.405+1363.75L251.706+1363.75C251.808+1362.12+252.264+1360.78+253.073+1359.73C254.36+1358.09+256.571+1357.27+259.704+1357.27C261.743+1357.27+263.555+1357.68+265.138+1358.49C266.722+1359.3+267.514+1360.82+267.514+1363.07L267.514+1371.61C267.514+1372.2+267.525+1372.92+267.548+1373.76C267.582+1374.4+267.679+1374.84+267.839+1375.06C267.998+1375.29+268.237+1375.48+268.556+1375.63L268.556+1376.35L263.259+1376.35C263.11+1375.97+263.008+1375.62+262.951+1375.29C262.894+1374.96+262.848+1374.58+262.814+1374.16C262.142+1374.89+261.367+1375.51+260.49+1376.02C259.442+1376.62+258.257+1376.93+256.935+1376.93C255.249+1376.93+253.856+1376.44+252.757+1375.48C251.657+1374.52+251.108+1373.16+251.108+1371.39C251.108+1369.1+251.991+1367.44+253.757+1366.42ZM261.276+1372.47C262.153+1371.85+262.609+1370.73+262.643+1369.1L262.643+1367.29C262.336+1367.48+262.025+1367.64+261.712+1367.76C261.399+1367.88+260.968+1367.99+260.422+1368.09L259.328+1368.3C258.302+1368.48+257.568+1368.7+257.123+1368.96C256.371+1369.41+255.995+1370.1+255.995+1371.03C255.995+1371.86+256.226+1372.46+256.687+1372.83C257.149+1373.2+257.71+1373.39+258.371+1373.39C259.419+1373.39+260.387+1373.08+261.276+1372.47Z" opacity="1" fill="#000000"/>
<path opacity="1" fill="#000000" d="M276.794+1361.41C276.338+1361.74+276.11+1362.13+276.11+1362.57C276.11+1363.13+276.349+1363.53+276.828+1363.78C277.306+1364.05+278.998+1364.5+281.904+1365.13C283.84+1365.59+285.293+1366.28+286.261+1367.2C287.218+1368.14+287.697+1369.3+287.697+1370.71C287.697+1372.55+287.011+1374.06+285.638+1375.23C284.265+1376.39+282.143+1376.98+279.272+1376.98C276.344+1376.98+274.182+1376.36+272.786+1375.12C271.39+1373.89+270.693+1372.31+270.693+1370.4L275.632+1370.4C275.734+1371.26+275.956+1371.88+276.298+1372.24C276.902+1372.89+278.018+1373.22+279.648+1373.22C280.605+1373.22+281.365+1373.08+281.929+1372.79C282.493+1372.51+282.775+1372.08+282.775+1371.51C282.775+1370.96+282.547+1370.55+282.092+1370.26C281.636+1369.98+279.944+1369.49+277.016+1368.79C274.908+1368.27+273.421+1367.61+272.555+1366.83C271.69+1366.05+271.257+1364.93+271.257+1363.48C271.257+1361.76+271.932+1360.28+273.282+1359.04C274.632+1357.81+276.532+1357.19+278.981+1357.19C281.305+1357.19+283.2+1357.65+284.664+1358.58C286.128+1359.51+286.968+1361.11+287.184+1363.39L282.314+1363.39C282.245+1362.76+282.069+1362.27+281.784+1361.9C281.248+1361.24+280.337+1360.91+279.05+1360.91C277.99+1360.91+277.238+1361.08+276.794+1361.41Z"/>
<path d="M296.259+1361.41C295.803+1361.74+295.575+1362.13+295.575+1362.57C295.575+1363.13+295.815+1363.53+296.293+1363.78C296.772+1364.05+298.464+1364.5+301.369+1365.13C303.306+1365.59+304.758+1366.28+305.727+1367.2C306.684+1368.14+307.162+1369.3+307.162+1370.71C307.162+1372.55+306.476+1374.06+305.103+1375.23C303.73+1376.39+301.608+1376.98+298.737+1376.98C295.809+1376.98+293.647+1376.36+292.251+1375.12C290.856+1373.89+290.158+1372.31+290.158+1370.4L295.097+1370.4C295.199+1371.26+295.422+1371.88+295.763+1372.24C296.367+1372.89+297.484+1373.22+299.113+1373.22C300.07+1373.22+300.831+1373.08+301.395+1372.79C301.958+1372.51+302.24+1372.08+302.24+1371.51C302.24+1370.96+302.013+1370.55+301.557+1370.26C301.101+1369.98+299.409+1369.49+296.481+1368.79C294.373+1368.27+292.887+1367.61+292.021+1366.83C291.155+1366.05+290.722+1364.93+290.722+1363.48C290.722+1361.76+291.397+1360.28+292.747+1359.04C294.097+1357.81+295.997+1357.19+298.447+1357.19C300.771+1357.19+302.665+1357.65+304.129+1358.58C305.593+1359.51+306.433+1361.11+306.65+1363.39L301.779+1363.39C301.711+1362.76+301.534+1362.27+301.249+1361.9C300.714+1361.24+299.802+1360.91+298.515+1360.91C297.455+1360.91+296.703+1361.08+296.259+1361.41Z" opacity="1" fill="#000000"/>
<path fill="#000000" opacity="1" d="M321.723+1377.05C318.1+1377.05+315.252+1375.88+313.178+1373.56C311.104+1371.22+310.068+1368.02+310.068+1363.95C310.068+1359.56+311.247+1356.17+313.605+1353.79C315.656+1351.71+318.265+1350.68+321.432+1350.68C325.671+1350.68+328.77+1352.07+330.729+1354.85C331.812+1356.41+332.393+1357.97+332.472+1359.55L327.209+1359.55C326.867+1358.34+326.428+1357.43+325.893+1356.81C324.936+1355.72+323.517+1355.17+321.637+1355.17C319.723+1355.17+318.214+1355.94+317.109+1357.49C316.003+1359.03+315.451+1361.21+315.451+1364.04C315.451+1366.87+316.035+1368.98+317.203+1370.39C318.37+1371.8+319.854+1372.5+321.655+1372.5C323.5+1372.5+324.907+1371.9+325.876+1370.69C326.411+1370.04+326.856+1369.06+327.209+1367.77L332.421+1367.77C331.965+1370.51+330.8+1372.74+328.926+1374.47C327.052+1376.19+324.651+1377.05+321.723+1377.05Z"/>
<path fill="#000000" opacity="1" d="M347.392+1362.59C346.947+1361.72+346.104+1361.29+344.863+1361.29C343.575+1361.29+342.598+1361.72+341.932+1362.58C341.265+1363.44+340.932+1364.67+340.932+1366.26L340.932+1376.35L336.078+1376.35L336.078+1351.24L340.932+1351.24L340.932+1360.14C341.638+1359.06+342.456+1358.31+343.384+1357.88C344.313+1357.45+345.29+1357.24+346.315+1357.24C347.466+1357.24+348.511+1357.44+349.451+1357.84C350.391+1358.24+351.163+1358.85+351.767+1359.67C352.28+1360.36+352.593+1361.08+352.707+1361.81C352.821+1362.55+352.878+1363.74+352.878+1365.41L352.878+1376.35L347.905+1376.35L347.905+1365.01C347.905+1364.01+347.734+1363.2+347.392+1362.59Z"/>
<path fill="#000000" d="M364.943+1376.96C362.573+1376.96+360.483+1376.2+358.671+1374.67C356.86+1373.14+355.954+1370.66+355.954+1367.22C355.954+1363.99+356.771+1361.52+358.406+1359.8C360.041+1358.08+362.163+1357.22+364.772+1357.22C366.322+1357.22+367.717+1357.51+368.959+1358.09C370.201+1358.67+371.226+1359.59+372.035+1360.84C372.765+1361.95+373.237+1363.23+373.454+1364.69C373.579+1365.54+373.63+1366.77+373.608+1368.38L360.859+1368.38C360.927+1370.25+361.514+1371.56+362.619+1372.31C363.291+1372.78+364.1+1373.01+365.046+1373.01C366.048+1373.01+366.863+1372.73+367.489+1372.16C367.831+1371.85+368.133+1371.42+368.395+1370.88L373.368+1370.88C373.243+1371.98+372.668+1373.1+371.642+1374.24C370.047+1376.05+367.814+1376.96+364.943+1376.96ZM364.772+1361.24C363.644+1361.24+362.77+1361.59+362.149+1362.3C361.528+1363+361.138+1363.96+360.978+1365.17L368.549+1365.17C368.469+1363.88+368.079+1362.9+367.378+1362.24C366.678+1361.57+365.809+1361.24+364.772+1361.24Z" opacity="1"/>
<path fill="#000000" d="M384.767+1361.39C383.127+1361.39+382.004+1362.21+381.401+1363.84C381.082+1364.7+380.922+1365.85+380.922+1367.29C380.922+1368.65+381.082+1369.75+381.401+1370.59C381.982+1372.14+383.075+1372.91+384.682+1372.91C385.821+1372.91+386.63+1372.6+387.109+1371.99C387.587+1371.37+387.878+1370.57+387.98+1369.59L392.953+1369.59C392.839+1371.08+392.304+1372.48+391.347+1373.8C389.82+1375.93+387.559+1376.99+384.562+1376.99C381.566+1376.99+379.361+1376.11+377.948+1374.33C376.536+1372.55+375.829+1370.24+375.829+1367.41C375.829+1364.21+376.61+1361.72+378.171+1359.94C379.731+1358.16+381.885+1357.27+384.631+1357.27C386.966+1357.27+388.877+1357.8+390.364+1358.85C391.851+1359.89+392.731+1361.74+393.005+1364.4L388.014+1364.4C387.923+1363.7+387.69+1363.08+387.314+1362.52C386.767+1361.77+385.918+1361.39+384.767+1361.39Z" opacity="1"/>
<path fill="#000000" opacity="1" d="M401.088+1364.81L407.155+1357.8L413.188+1357.8L406.676+1364.93L413.444+1376.35L407.565+1376.35L403.105+1368.38L401.088+1370.48L401.088+1376.35L396.303+1376.35L396.303+1351.24L401.088+1351.24L401.088+1364.81Z"/>
<path opacity="1" fill="#000000" d="M426.928+1366.42C427.896+1365.86+429.321+1365.46+431.2+1365.22L432.858+1365.01C433.758+1364.9+434.402+1364.76+434.789+1364.59C435.484+1364.29+435.832+1363.83+435.832+1363.2C435.832+1362.44+435.567+1361.91+435.037+1361.62C434.507+1361.33+433.73+1361.19+432.704+1361.19C431.554+1361.19+430.739+1361.47+430.26+1362.04C429.919+1362.46+429.691+1363.03+429.577+1363.75L424.877+1363.75C424.98+1362.12+425.435+1360.78+426.244+1359.73C427.532+1358.09+429.742+1357.27+432.875+1357.27C434.915+1357.27+436.726+1357.68+438.31+1358.49C439.893+1359.3+440.685+1360.82+440.685+1363.07L440.685+1371.61C440.685+1372.2+440.697+1372.92+440.719+1373.76C440.754+1374.4+440.85+1374.84+441.01+1375.06C441.169+1375.29+441.409+1375.48+441.728+1375.63L441.728+1376.35L436.43+1376.35C436.282+1375.97+436.179+1375.62+436.122+1375.29C436.065+1374.96+436.02+1374.58+435.986+1374.16C435.313+1374.89+434.539+1375.51+433.661+1376.02C432.613+1376.62+431.428+1376.93+430.107+1376.93C428.42+1376.93+427.028+1376.44+425.928+1375.48C424.829+1374.52+424.279+1373.16+424.279+1371.39C424.279+1369.1+425.162+1367.44+426.928+1366.42ZM434.447+1372.47C435.325+1371.85+435.78+1370.73+435.815+1369.1L435.815+1367.29C435.507+1367.48+435.197+1367.64+434.883+1367.76C434.57+1367.88+434.14+1367.99+433.593+1368.09L432.499+1368.3C431.474+1368.48+430.739+1368.7+430.295+1368.96C429.543+1369.41+429.167+1370.1+429.167+1371.03C429.167+1371.86+429.397+1372.46+429.859+1372.83C430.32+1373.2+430.881+1373.39+431.542+1373.39C432.59+1373.39+433.559+1373.08+434.447+1372.47Z"/>
<path opacity="1" d="M451.264+1375.76C450.728+1375.35+450.204+1374.76+449.692+1373.97L449.692+1383.68L444.872+1383.68L444.872+1357.72L449.538+1357.72L449.538+1360.47C450.062+1359.66+450.62+1359.02+451.213+1358.55C452.295+1357.72+453.582+1357.31+455.075+1357.31C457.251+1357.31+459.094+1358.11+460.603+1359.72C462.113+1361.32+462.868+1363.68+462.868+1366.79C462.868+1370.07+462.13+1372.57+460.655+1374.29C459.179+1376.01+457.28+1376.87+454.955+1376.87C453.474+1376.87+452.244+1376.5+451.264+1375.76ZM453.674+1372.79C455.029+1372.79+456.063+1372.27+456.775+1371.22C457.487+1370.17+457.843+1368.77+457.843+1367.03C457.843+1365.6+457.516+1364.33+456.861+1363.22C456.206+1362.11+455.143+1361.56+453.674+1361.56C451.908+1361.56+450.694+1362.4+450.033+1364.07C449.692+1364.96+449.521+1366.09+449.521+1367.46C449.521+1369.62+450.096+1371.14+451.247+1372.02C451.93+1372.53+452.739+1372.79+453.674+1372.79Z" fill="#000000"/>
<path opacity="1" fill="#000000" d="M472.643+1375.76C472.108+1375.35+471.584+1374.76+471.071+1373.97L471.071+1383.68L466.252+1383.68L466.252+1357.72L470.917+1357.72L470.917+1360.47C471.441+1359.66+472+1359.02+472.592+1358.55C473.674+1357.72+474.962+1357.31+476.454+1357.31C478.63+1357.31+480.473+1358.11+481.983+1359.72C483.492+1361.32+484.247+1363.68+484.247+1366.79C484.247+1370.07+483.51+1372.57+482.034+1374.29C480.559+1376.01+478.659+1376.87+476.335+1376.87C474.854+1376.87+473.623+1376.5+472.643+1375.76ZM475.053+1372.79C476.409+1372.79+477.443+1372.27+478.155+1371.22C478.867+1370.17+479.223+1368.77+479.223+1367.03C479.223+1365.6+478.895+1364.33+478.24+1363.22C477.585+1362.11+476.523+1361.56+475.053+1361.56C473.287+1361.56+472.074+1362.4+471.413+1364.07C471.071+1364.96+470.9+1366.09+470.9+1367.46C470.9+1369.62+471.475+1371.14+472.626+1372.02C473.31+1372.53+474.119+1372.79+475.053+1372.79Z"/>
<path opacity="1" fill="#000000" d="M487.682+1371.25L492.861+1371.25L492.861+1376.35L487.682+1376.35L487.682+1371.25Z"/>
<g opacity="1">
<g filter="url(#4955A6D9-CB82-4564-9133-3E8855D3FCDB)">
<g opacity="1">
<path d="M463.73+91.1198L616.27+91.1198C650.086+91.1198+677.5+118.534+677.5+152.35L677.5+304.889C677.5+338.706+650.086+366.12+616.27+366.12L463.73+366.12C429.914+366.12+402.5+338.706+402.5+304.889L402.5+152.35C402.5+118.534+429.914+91.1198+463.73+91.1198Z" opacity="1" fill="#ffffff"/>
<path d="M463.73+91.1198L616.27+91.1198C650.086+91.1198+677.5+118.534+677.5+152.35L677.5+304.889C677.5+338.706+650.086+366.12+616.27+366.12L463.73+366.12C429.914+366.12+402.5+338.706+402.5+304.889L402.5+152.35C402.5+118.534+429.914+91.1198+463.73+91.1198Z" opacity="1" fill="#ffffff"/>
</g>
<path opacity="1" d="M540.194+142.999L540.437+143.067L615.526+165.655C617.833+166.348+619.432+168.437+619.519+170.835L619.523+171.041L619.523+174.211L594.917+180.494C594.732+180.542+594.559+180.628+594.41+180.747L594.303+180.842L539.463+235.293C538.969+235.784+538.188+235.811+537.662+235.375L537.567+235.288L506.88+204.531C506.879+204.531+506.879+204.53+506.878+204.529C506.384+204.036+505.602+204.008+505.075+204.444L504.979+204.531L492.317+217.222C491.825+217.715+491.796+218.496+492.231+219.023L492.317+219.119L537.562+264.467C538.058+264.962+538.841+264.991+539.368+264.555L539.463+264.467L619.523+184.223L619.523+253.863C619.523+262.571+616.682+271.444+611.063+280.322C609.026+279.615+606.906+279.085+604.723+278.749L604.723+278.749L605.115+270.695L605.433+270.713L605.602+270.719C607.56+270.738+609.073+269.163+609.163+267.305C609.261+265.313+607.749+263.609+605.786+263.499L605.786+263.499L598.043+263.066L597.875+263.06L597.709+263.063C595.894+263.132+594.404+264.596+594.312+266.474C594.215+268.466+595.727+270.17+597.69+270.28L597.69+270.28L598.007+270.297L597.613+278.356C593.243+278.538+589.071+279.49+585.23+281.082L585.23+281.082L581.674+274.025L581.957+273.88L582.109+273.797C583.745+272.851+584.37+270.753+583.499+269.025C582.602+267.245+580.457+266.532+578.709+267.433L578.709+267.433L571.811+270.987L571.659+271.07C570.023+272.016+569.398+274.114+570.269+275.842C571.129+277.55+573.242+278.37+575.059+277.434L575.059+277.434L575.342+277.288L578.947+284.443C575.324+286.866+572.157+289.921+569.605+293.453L569.605+293.453L562.671+289.438L562.83+289.161L562.915+289.005C563.777+287.323+563.178+285.242+561.528+284.286C559.826+283.301+557.649+283.886+556.666+285.593L556.666+285.593L552.789+292.327L552.704+292.483C551.843+294.165+552.441+296.246+554.092+297.201C555.794+298.188+557.97+297.602+558.953+295.895L558.953+295.895L559.112+295.619L566.01+299.612C564.55+302.793+563.531+306.22+563.034+309.814L563.034+309.814L554.857+309.555L554.869+309.236L554.872+309.068C554.856+307.173+553.337+305.616+551.406+305.555C549.417+305.492+547.746+307.038+547.67+309.008L547.67+309.008L547.374+316.78L547.371+316.948C547.387+318.842+548.906+320.399+550.837+320.46C552.755+320.522+554.495+319.046+554.573+317.008L554.573+317.008L554.585+316.689L562.743+316.947C562.845+318.79+563.083+320.596+563.447+322.356C551.196+329.735+541.674+334.04+541.117+334.29C540.388+334.617+539.607+334.781+538.826+334.781C538.044+334.781+537.263+334.617+536.534+334.29C535.746+333.936+517.014+325.466+497.992+311.659C486.668+303.44+477.605+295.022+471.054+286.64C462.608+275.832+458.262+264.975+458.13+254.361L458.127+253.863L458.127+171.041C458.127+168.626+459.662+166.49+461.927+165.717L462.123+165.655L537.214+143.067C538.185+142.774+539.214+142.752+540.194+142.999Z" fill="#ffffff"/>
</g>
<g opacity="1">
<g opacity="1">
<path d="M470.664+103.62L609.336+103.62C640.078+103.62+665+128.541+665+159.284L665+297.956C665+328.698+640.078+353.62+609.336+353.62L470.664+353.62C439.922+353.62+415+328.698+415+297.956L415+159.284C415+128.541+439.922+103.62+470.664+103.62Z" opacity="1" fill="#065fc4"/>
<path opacity="1" fill="url(#LinearGradient)" d="M470.664+103.62L609.336+103.62C640.078+103.62+665+128.541+665+159.284L665+297.956C665+328.698+640.078+353.62+609.336+353.62L470.664+353.62C439.922+353.62+415+328.698+415+297.956L415+159.284C415+128.541+439.922+103.62+470.664+103.62Z"/>
</g>
<path opacity="1" d="M540.176+150.783L540.398+150.844L608.66+171.379C610.757+172.009+612.211+173.908+612.29+176.088L612.293+176.275L612.293+179.157L589.925+184.869C589.756+184.912+589.599+184.991+589.464+185.099L589.367+185.186L539.512+234.686C539.063+235.132+538.353+235.157+537.875+234.761L537.788+234.682L509.891+206.721C509.89+206.721+509.89+206.72+509.889+206.719C509.44+206.271+508.729+206.246+508.25+206.642L508.163+206.721L496.652+218.258C496.205+218.707+496.178+219.416+496.573+219.896L496.652+219.983L537.784+261.208C538.235+261.659+538.946+261.684+539.425+261.288L539.512+261.208L612.293+188.259L612.293+251.569C612.293+259.484+609.711+267.551+604.603+275.622C602.751+274.979+600.824+274.497+598.839+274.192L598.839+274.192L599.196+266.87L599.485+266.886L599.638+266.891C601.418+266.909+602.793+265.478+602.876+263.788C602.964+261.977+601.59+260.428+599.805+260.328L599.805+260.328L592.766+259.934L592.614+259.929L592.463+259.932C590.813+259.994+589.458+261.325+589.375+263.032C589.286+264.843+590.661+266.393+592.445+266.492L592.445+266.492L592.734+266.508L592.376+273.835C588.403+274+584.61+274.866+581.118+276.313L581.118+276.313L577.885+269.898L578.143+269.765L578.281+269.69C579.768+268.83+580.336+266.923+579.544+265.352C578.729+263.734+576.779+263.086+575.19+263.905L575.19+263.905L568.919+267.136L568.781+267.211C567.293+268.071+566.726+269.978+567.517+271.549C568.299+273.102+570.22+273.847+571.872+272.996L571.872+272.996L572.129+272.864L575.407+279.368C572.113+281.571+569.234+284.349+566.914+287.559L566.914+287.559L560.61+283.909L560.755+283.658L560.832+283.515C561.615+281.987+561.071+280.095+559.571+279.226C558.023+278.33+556.044+278.861+555.151+280.413L555.151+280.413L551.626+286.535L551.549+286.677C550.766+288.206+551.31+290.098+552.811+290.967C554.358+291.863+556.337+291.331+557.23+289.779L557.23+289.779L557.375+289.528L563.646+293.158C562.318+296.05+561.392+299.165+560.94+302.432L560.94+302.432L553.507+302.197L553.518+301.907L553.52+301.754C553.505+300.032+552.125+298.616+550.369+298.561C548.561+298.503+547.041+299.909+546.973+301.7L546.973+301.7L546.703+308.765L546.701+308.918C546.716+310.64+548.096+312.056+549.852+312.111C551.595+312.167+553.177+310.825+553.248+308.972L553.248+308.972L553.259+308.682L560.675+308.917C560.768+310.592+560.984+312.235+561.316+313.835C550.178+320.543+541.522+324.456+541.016+324.683C540.353+324.981+539.643+325.13+538.932+325.13C538.222+325.13+537.512+324.981+536.849+324.683C536.133+324.362+519.104+316.662+501.811+304.11C491.517+296.638+483.277+288.986+477.322+281.365C469.644+271.54+465.692+261.67+465.573+252.021L465.57+251.569L465.57+176.275C465.57+174.08+466.966+172.138+469.025+171.436L469.203+171.379L537.467+150.844C538.35+150.579+539.285+150.558+540.176+150.783Z" fill="#ffffff"/>
</g>
</g>
<g opacity="1" id="qr">
</g>
</g>
</svg>